<?xml version="1.0" standalone="no"?>
<!DOCTYPE svg PUBLIC "-//W3C//DTD SVG 20010904//EN"
 "http://www.w3.org/TR/2001/REC-SVG-20010904/DTD/svg10.dtd">
<svg version="1.0" xmlns="http://www.w3.org/2000/svg"
 width="260.000000pt" height="260.000000pt" viewBox="0 0 260.000000 260.000000"
 preserveAspectRatio="xMidYMid meet">
<metadata>
Created by potrace 1.14, written by Peter Selinger 2001-2017
</metadata>
<g transform="translate(0.000000,260.000000) scale(0.100000,-0.100000)"
fill="#000000" stroke="none">
<path d="M440 1305 l0 -285 320 0 321 0 -3 73 -3 72 -207 3 -208 2 0 35 0 35
205 0 206 0 -3 68 -3 67 -202 3 -203 2 0 35 0 35 205 0 205 0 0 70 0 70 -315
0 -315 0 0 -285z"/>
<path d="M1230 1305 l0 -285 110 0 110 0 2 164 3 164 90 -162 90 -161 60 -3
60 -3 97 173 98 173 0 -172 0 -173 110 0 110 0 0 285 0 286 -147 -3 -148 -3
-84 -152 c-47 -84 -87 -150 -90 -147 -3 3 -42 72 -86 152 l-80 147 -153 3
-152 3 0 -286z"/>
</g>
</svg>
