<svg width="60" height="60" viewBox="0 0 60 60" fill="none" xmlns="http://www.w3.org/2000/svg">
<rect width="60" height="60" rx="7" fill="white"/>
<path d="M15.2696 19.0442C13.7297 19.251 12.3586 20.5844 12.0774 22.1461C12.0211 22.4313 12 25.0769 12 30.5534C12 39.4099 11.986 39.0106 12.4641 39.9448C12.7875 40.5652 13.4204 41.2069 14.0321 41.535C14.9743 42.0341 14.3344 42.0127 25.5141 41.9913L35.5899 41.9699L36.0047 41.8059C37.2281 41.3353 38.1 40.394 38.4656 39.1604C38.557 38.8537 38.5781 38.433 38.5781 37.1423C38.5781 35.9443 38.5992 35.5165 38.6625 35.5165C38.7047 35.5165 40.5961 36.5433 42.8672 37.7984C45.7992 39.4242 47.0508 40.0803 47.2125 40.0803C47.5148 40.0803 47.7469 39.959 47.8805 39.7237C47.993 39.5383 48 38.7896 48 30.4892V21.4544L47.7609 21.212C47.325 20.7698 47.4586 20.7128 42.825 23.2799C40.5328 24.5492 38.6414 25.5689 38.6203 25.5475C38.5992 25.5261 38.5781 24.7845 38.5781 23.8932C38.5781 22.6809 38.55 22.1818 38.4727 21.8609C38.1492 20.6201 37.1508 19.5861 35.836 19.144C35.4703 19.0156 34.957 19.0085 25.5703 19.0014C20.1352 18.9943 15.5016 19.0156 15.2696 19.0442ZM35.3719 20.6486C36.082 20.834 36.5742 21.269 36.9047 22.0106L37.0664 22.36L37.0875 30.204C37.1016 35.6948 37.0875 38.1834 37.0313 38.5115C36.8906 39.3315 36.3492 40.0018 35.5969 40.287L35.1961 40.4368H25.2891C15.3891 40.4368 15.3821 40.4368 14.9883 40.287C14.4469 40.0803 13.8914 39.5169 13.6946 38.975L13.5469 38.5685L13.561 30.3965L13.5821 22.2174L13.7508 21.8823C14.0672 21.2547 14.6579 20.7698 15.2836 20.6201C15.4313 20.5844 19.8821 20.5559 25.2539 20.5488C33.6985 20.5417 35.0133 20.5559 35.3719 20.6486ZM46.4391 34.2615L46.418 38.0052L42.5156 35.8445L38.6133 33.6767V30.5249V27.373L42.5156 25.2124L46.418 23.0446L46.4391 26.7883C46.4461 28.842 46.4461 32.2078 46.4391 34.2615Z" fill="black"/>
<path d="M15.2696 19.0442C13.7297 19.251 12.3586 20.5844 12.0774 22.1461C12.0211 22.4313 12 25.0769 12 30.5534C12 39.4099 11.986 39.0106 12.4641 39.9448C12.7875 40.5652 13.4204 41.2069 14.0321 41.535C14.9743 42.0341 14.3344 42.0127 25.5141 41.9913L35.5899 41.9699L36.0047 41.8059C37.2281 41.3353 38.1 40.394 38.4656 39.1604C38.557 38.8537 38.5781 38.433 38.5781 37.1423C38.5781 35.9443 38.5992 35.5165 38.6625 35.5165C38.7047 35.5165 40.5961 36.5433 42.8672 37.7984C45.7992 39.4242 47.0508 40.0803 47.2125 40.0803C47.5148 40.0803 47.7469 39.959 47.8805 39.7237C47.993 39.5383 48 38.7896 48 30.4892V21.4544L47.7609 21.212C47.325 20.7698 47.4586 20.7128 42.825 23.2799C40.5328 24.5492 38.6414 25.5689 38.6203 25.5475C38.5992 25.5261 38.5781 24.7845 38.5781 23.8932C38.5781 22.6809 38.55 22.1818 38.4727 21.8609C38.1492 20.6201 37.1508 19.5861 35.836 19.144C35.4703 19.0156 34.957 19.0085 25.5703 19.0014C20.1352 18.9943 15.5016 19.0156 15.2696 19.0442ZM35.3719 20.6486C36.082 20.834 36.5742 21.269 36.9047 22.0106L37.0664 22.36L37.0875 30.204C37.1016 35.6948 37.0875 38.1834 37.0313 38.5115C36.8906 39.3315 36.3492 40.0018 35.5969 40.287L35.1961 40.4368H25.2891C15.3891 40.4368 15.3821 40.4368 14.9883 40.287C14.4469 40.0803 13.8914 39.5169 13.6946 38.975L13.5469 38.5685L13.561 30.3965L13.5821 22.2174L13.7508 21.8823C14.0672 21.2547 14.6579 20.7698 15.2836 20.6201C15.4313 20.5844 19.8821 20.5559 25.2539 20.5488C33.6985 20.5417 35.0133 20.5559 35.3719 20.6486ZM46.4391 34.2615L46.418 38.0052L42.5156 35.8445L38.6133 33.6767V30.5249V27.373L42.5156 25.2124L46.418 23.0446L46.4391 26.7883C46.4461 28.842 46.4461 32.2078 46.4391 34.2615Z" fill="url(#paint0_linear_222_727)"/>
<defs>
<linearGradient id="paint0_linear_222_727" x1="12" y1="30.5009" x2="48" y2="30.5009" gradientUnits="userSpaceOnUse">
<stop stop-color="#0091D7"/>
<stop offset="1" stop-color="#FE0FD4"/>
</linearGradient>
</defs>
</svg>
