<svg width="60" height="60" viewBox="0 0 60 60" fill="none" xmlns="http://www.w3.org/2000/svg">
<rect width="60" height="60" rx="7" fill="white"/>
<path d="M22.5959 15.1596C16.6661 16.9272 15.3261 17.3458 15.1921 17.4787L15.0246 17.6449L15.0045 25.8381C14.9911 32.8353 15.0045 34.1045 15.0916 34.5896C15.4065 36.4103 16.4048 38.1313 18.2206 40.0052C19.7282 41.5668 21.8656 43.1682 24.204 44.4972C25.8322 45.4209 28.6128 46.6568 29.7385 46.9559C30.0065 47.029 30.0936 47.0157 30.5023 46.8828C31.9161 46.4243 34.2813 45.3544 35.7956 44.4972C39.2931 42.5104 42.1341 40.0517 43.6818 37.6728C43.9901 37.201 44.4524 36.2242 44.6333 35.6793C45.0219 34.5231 45.0085 34.7424 44.9951 25.8381L44.975 17.6449L44.8075 17.4854C44.6735 17.3458 43.32 16.9206 37.3768 15.153C33.3834 13.9636 30.0534 12.9934 29.973 13C29.8926 13 26.5759 13.9702 22.5959 15.1596ZM36.9346 16.5019L43.5679 18.4821L43.588 25.9511C43.6014 30.9548 43.5813 33.6327 43.5344 34.0513C43.3334 35.8056 42.3887 37.4137 40.392 39.3739C38.5293 41.208 36.4053 42.6765 33.551 44.0919C32.2578 44.7364 30.3147 45.5139 29.9998 45.5139C29.6849 45.5139 27.7418 44.7364 26.4486 44.0919C23.5943 42.6765 21.4703 41.208 19.6076 39.3739C17.6109 37.4137 16.6661 35.8056 16.4651 34.0513C16.4182 33.6327 16.3981 30.9548 16.4115 25.9511L16.4316 18.4821L23.1655 16.4687C27.9227 15.0467 29.9596 14.4686 30.1003 14.4952C30.2142 14.5084 33.2829 15.4188 36.9346 16.5019Z" fill="black"/>
<path d="M22.5959 15.1596C16.6661 16.9272 15.3261 17.3458 15.1921 17.4787L15.0246 17.6449L15.0045 25.8381C14.9911 32.8353 15.0045 34.1045 15.0916 34.5896C15.4065 36.4103 16.4048 38.1313 18.2206 40.0052C19.7282 41.5668 21.8656 43.1682 24.204 44.4972C25.8322 45.4209 28.6128 46.6568 29.7385 46.9559C30.0065 47.029 30.0936 47.0157 30.5023 46.8828C31.9161 46.4243 34.2813 45.3544 35.7956 44.4972C39.2931 42.5104 42.1341 40.0517 43.6818 37.6728C43.9901 37.201 44.4524 36.2242 44.6333 35.6793C45.0219 34.5231 45.0085 34.7424 44.9951 25.8381L44.975 17.6449L44.8075 17.4854C44.6735 17.3458 43.32 16.9206 37.3768 15.153C33.3834 13.9636 30.0534 12.9934 29.973 13C29.8926 13 26.5759 13.9702 22.5959 15.1596ZM36.9346 16.5019L43.5679 18.4821L43.588 25.9511C43.6014 30.9548 43.5813 33.6327 43.5344 34.0513C43.3334 35.8056 42.3887 37.4137 40.392 39.3739C38.5293 41.208 36.4053 42.6765 33.551 44.0919C32.2578 44.7364 30.3147 45.5139 29.9998 45.5139C29.6849 45.5139 27.7418 44.7364 26.4486 44.0919C23.5943 42.6765 21.4703 41.208 19.6076 39.3739C17.6109 37.4137 16.6661 35.8056 16.4651 34.0513C16.4182 33.6327 16.3981 30.9548 16.4115 25.9511L16.4316 18.4821L23.1655 16.4687C27.9227 15.0467 29.9596 14.4686 30.1003 14.4952C30.2142 14.5084 33.2829 15.4188 36.9346 16.5019Z" fill="url(#paint0_linear_222_724)"/>
<defs>
<linearGradient id="paint0_linear_222_724" x1="15" y1="30.0014" x2="45" y2="30.0014" gradientUnits="userSpaceOnUse">
<stop stop-color="#0091D7"/>
<stop offset="1" stop-color="#FE0FD4"/>
</linearGradient>
</defs>
</svg>
