<svg width="60" height="60" viewBox="0 0 60 60" fill="none" xmlns="http://www.w3.org/2000/svg">
<rect width="60" height="60" rx="7" fill="white"/>
<path d="M20.0356 18.5213C14.2756 21.1849 10.2115 23.1117 10.1334 23.2038C9.9458 23.4341 9.95361 23.695 10.1724 23.9253C10.274 24.0405 11.6261 24.7083 13.5878 25.6141L16.8312 27.1033L16.8703 30.6267C16.9094 34.0733 16.9094 34.15 17.0891 34.5569C17.4252 35.3398 18.0426 36.1151 18.9023 36.8214C20.9656 38.5331 23.8573 39.7076 27.2648 40.2219C28.3825 40.3908 31.3914 40.4138 32.4621 40.2603C34.6348 39.9532 36.8075 39.3315 38.2846 38.5946C38.4957 38.4871 38.691 38.4027 38.7145 38.4027C38.7379 38.4027 38.7536 38.7097 38.7536 39.0935C38.7536 39.6692 38.7301 39.7844 38.6285 39.7844C38.566 39.7844 38.3237 39.9686 38.1049 40.1912C37.3702 40.9051 37.2999 41.7341 37.9017 42.5862L38.1127 42.8932L37.972 44.5052C37.7766 46.6162 37.7766 46.5855 38.0111 46.8081C38.1909 46.9923 38.2299 47 39.3788 47C40.5277 47 40.5667 46.9923 40.7465 46.8081C40.981 46.5855 40.981 46.6162 40.7856 44.5052L40.6449 42.8932L40.8559 42.5862C41.4577 41.7341 41.3874 40.9051 40.6527 40.1912C40.4339 39.9686 40.1916 39.7844 40.1291 39.7844C40.0197 39.7844 40.004 39.6308 40.004 38.7174V37.6581L40.5511 37.2589C41.6609 36.4452 42.5206 35.4627 42.9114 34.5492C43.0911 34.15 43.0911 34.0656 43.1302 30.6267L43.1693 27.111L46.4127 25.6141C48.4369 24.6853 49.7186 24.0482 49.8359 23.9253C50.0547 23.6797 50.0547 23.4187 49.8359 23.1807C49.617 22.9505 30.2503 13.9923 29.9846 14C29.883 14 25.4126 16.0342 20.0356 18.5213ZM39.0271 19.4424C43.8883 21.6916 47.8664 23.5338 47.882 23.5492C47.9133 23.5722 39.7305 27.3489 39.6289 27.3489C39.5742 27.3489 37.4249 26.3126 34.8458 25.0461C32.2667 23.7795 30.0706 22.7432 29.9612 22.7432C29.5391 22.7432 29.2422 23.2805 29.4532 23.672C29.5079 23.7641 31.2195 24.6469 33.8533 25.9365C37.9017 27.9323 38.1518 28.0628 37.972 28.1549C37.253 28.5157 30.0784 31.8011 30.0081 31.8011C29.9299 31.8011 16.8078 25.7599 12.9391 23.9407L12.1029 23.5492L20.989 19.4271C25.8815 17.1626 29.9534 15.3203 30.0393 15.328C30.1253 15.3433 34.1737 17.1933 39.0271 19.4424ZM24.0683 30.4501C27.2258 31.9086 29.8987 33.1061 30.0003 33.1061C30.1019 33.1061 32.0948 32.2233 34.4316 31.1486C36.7606 30.074 38.691 29.1912 38.7145 29.1912C38.7379 29.1912 38.7457 30.9414 38.7379 33.083L38.7145 36.9749L37.9876 37.3433C36.4167 38.1186 34.5567 38.6943 32.6575 38.9937C31.3992 39.1856 28.6013 39.1856 27.343 38.9937C26.1316 38.8018 24.5451 38.395 23.5681 38.0188C21.0906 37.067 19.0352 35.5932 18.3474 34.2805L18.1598 33.9121L18.1364 30.8109C18.1208 28.3161 18.1364 27.7251 18.2146 27.7558C18.2693 27.7711 20.9031 28.984 24.0683 30.4501ZM41.8797 30.7188C41.8797 33.9274 41.8797 33.9428 41.4499 34.6029C41.1998 34.9867 40.1916 36.023 40.0666 36.023C40.0353 36.023 40.004 34.3496 40.004 32.3001V28.5694L40.8872 28.1549C41.3639 27.9323 41.786 27.7404 41.825 27.7404C41.8563 27.7327 41.8797 29.0761 41.8797 30.7188ZM39.8086 41.0509C40.1994 41.4271 39.9259 42.0872 39.3788 42.0872C39.0584 42.0872 38.7536 41.7879 38.7536 41.4731C38.7536 41.1584 39.0584 40.859 39.3788 40.859C39.5273 40.859 39.6914 40.9281 39.8086 41.0509ZM39.5195 44.3747C39.6523 45.8486 39.6523 45.7718 39.3788 45.7718C39.1912 45.7718 39.1443 45.7411 39.1443 45.6029C39.1443 45.1424 39.3319 43.3154 39.3788 43.3154C39.4101 43.3154 39.4726 43.7913 39.5195 44.3747Z" fill="black"/>
<path d="M20.0356 18.5213C14.2756 21.1849 10.2115 23.1117 10.1334 23.2038C9.9458 23.4341 9.95361 23.695 10.1724 23.9253C10.274 24.0405 11.6261 24.7083 13.5878 25.6141L16.8312 27.1033L16.8703 30.6267C16.9094 34.0733 16.9094 34.15 17.0891 34.5569C17.4252 35.3398 18.0426 36.1151 18.9023 36.8214C20.9656 38.5331 23.8573 39.7076 27.2648 40.2219C28.3825 40.3908 31.3914 40.4138 32.4621 40.2603C34.6348 39.9532 36.8075 39.3315 38.2846 38.5946C38.4957 38.4871 38.691 38.4027 38.7145 38.4027C38.7379 38.4027 38.7536 38.7097 38.7536 39.0935C38.7536 39.6692 38.7301 39.7844 38.6285 39.7844C38.566 39.7844 38.3237 39.9686 38.1049 40.1912C37.3702 40.9051 37.2999 41.7341 37.9017 42.5862L38.1127 42.8932L37.972 44.5052C37.7766 46.6162 37.7766 46.5855 38.0111 46.8081C38.1909 46.9923 38.2299 47 39.3788 47C40.5277 47 40.5667 46.9923 40.7465 46.8081C40.981 46.5855 40.981 46.6162 40.7856 44.5052L40.6449 42.8932L40.8559 42.5862C41.4577 41.7341 41.3874 40.9051 40.6527 40.1912C40.4339 39.9686 40.1916 39.7844 40.1291 39.7844C40.0197 39.7844 40.004 39.6308 40.004 38.7174V37.6581L40.5511 37.2589C41.6609 36.4452 42.5206 35.4627 42.9114 34.5492C43.0911 34.15 43.0911 34.0656 43.1302 30.6267L43.1693 27.111L46.4127 25.6141C48.4369 24.6853 49.7186 24.0482 49.8359 23.9253C50.0547 23.6797 50.0547 23.4187 49.8359 23.1807C49.617 22.9505 30.2503 13.9923 29.9846 14C29.883 14 25.4126 16.0342 20.0356 18.5213ZM39.0271 19.4424C43.8883 21.6916 47.8664 23.5338 47.882 23.5492C47.9133 23.5722 39.7305 27.3489 39.6289 27.3489C39.5742 27.3489 37.4249 26.3126 34.8458 25.0461C32.2667 23.7795 30.0706 22.7432 29.9612 22.7432C29.5391 22.7432 29.2422 23.2805 29.4532 23.672C29.5079 23.7641 31.2195 24.6469 33.8533 25.9365C37.9017 27.9323 38.1518 28.0628 37.972 28.1549C37.253 28.5157 30.0784 31.8011 30.0081 31.8011C29.9299 31.8011 16.8078 25.7599 12.9391 23.9407L12.1029 23.5492L20.989 19.4271C25.8815 17.1626 29.9534 15.3203 30.0393 15.328C30.1253 15.3433 34.1737 17.1933 39.0271 19.4424ZM24.0683 30.4501C27.2258 31.9086 29.8987 33.1061 30.0003 33.1061C30.1019 33.1061 32.0948 32.2233 34.4316 31.1486C36.7606 30.074 38.691 29.1912 38.7145 29.1912C38.7379 29.1912 38.7457 30.9414 38.7379 33.083L38.7145 36.9749L37.9876 37.3433C36.4167 38.1186 34.5567 38.6943 32.6575 38.9937C31.3992 39.1856 28.6013 39.1856 27.343 38.9937C26.1316 38.8018 24.5451 38.395 23.5681 38.0188C21.0906 37.067 19.0352 35.5932 18.3474 34.2805L18.1598 33.9121L18.1364 30.8109C18.1208 28.3161 18.1364 27.7251 18.2146 27.7558C18.2693 27.7711 20.9031 28.984 24.0683 30.4501ZM41.8797 30.7188C41.8797 33.9274 41.8797 33.9428 41.4499 34.6029C41.1998 34.9867 40.1916 36.023 40.0666 36.023C40.0353 36.023 40.004 34.3496 40.004 32.3001V28.5694L40.8872 28.1549C41.3639 27.9323 41.786 27.7404 41.825 27.7404C41.8563 27.7327 41.8797 29.0761 41.8797 30.7188ZM39.8086 41.0509C40.1994 41.4271 39.9259 42.0872 39.3788 42.0872C39.0584 42.0872 38.7536 41.7879 38.7536 41.4731C38.7536 41.1584 39.0584 40.859 39.3788 40.859C39.5273 40.859 39.6914 40.9281 39.8086 41.0509ZM39.5195 44.3747C39.6523 45.8486 39.6523 45.7718 39.3788 45.7718C39.1912 45.7718 39.1443 45.7411 39.1443 45.6029C39.1443 45.1424 39.3319 43.3154 39.3788 43.3154C39.4101 43.3154 39.4726 43.7913 39.5195 44.3747Z" fill="url(#paint0_linear_222_731)"/>
<defs>
<linearGradient id="paint0_linear_222_731" x1="10" y1="30.5013" x2="50" y2="30.5013" gradientUnits="userSpaceOnUse">
<stop stop-color="#0091D7"/>
<stop offset="1" stop-color="#FE0FD4"/>
</linearGradient>
</defs>
</svg>
