<svg width="512" height="512" viewBox="0 0 512 512" fill="none" xmlns="http://www.w3.org/2000/svg">
<g clip-path="url(#clip0_707_119)">
<path d="M256 512C306.632 512 356.127 496.986 398.226 468.856C440.325 440.727 473.137 400.745 492.513 353.967C511.889 307.189 516.959 255.716 507.081 206.057C497.203 156.398 472.822 110.783 437.019 74.9808C401.217 39.1785 355.602 14.7969 305.943 4.91908C256.284 -4.95873 204.811 0.110921 158.033 19.487C111.255 38.863 71.2734 71.6751 43.1438 113.774C15.0141 155.873 0 205.368 0 256C0.0734097 323.873 27.0683 388.945 75.0618 436.938C123.055 484.932 188.127 511.927 256 512ZM225.835 140.501C233.836 132.503 244.686 128.009 256 128.009C267.314 128.009 278.164 132.503 286.165 140.501L376.683 231.019L346.517 261.184L277.333 192V384H234.667V192L165.483 261.184L135.317 231.019L225.835 140.501Z" fill="white"/>
</g>
<defs>
<clipPath id="clip0_707_119">
<rect width="512" height="512" fill="white"/>
</clipPath>
</defs>
</svg>
