<svg width="60" height="60" viewBox="0 0 60 60" fill="none" xmlns="http://www.w3.org/2000/svg">
<g id="Group 770984">
<g id="Group 95">
<rect id="Rectangle 24" width="60" height="60" rx="7" fill="white"/>
</g>
<g id="Group">
<g id="Vector">
<path d="M21.8636 16.6206C17.5541 18.0654 14.014 19.2538 14.0015 19.2663C13.9765 19.2851 14.2642 20.1857 14.308 20.2233C14.3205 20.2358 17.7043 19.1225 21.8323 17.7465C25.9541 16.3704 29.3378 15.2446 29.344 15.2446C29.3565 15.2446 29.3565 18.7659 29.3503 23.0754L29.3315 30.8998L28.3308 31.2376C27.7804 31.419 27.3113 31.5691 27.2863 31.5691C27.255 31.5691 27.2362 30.5246 27.2362 29.2486V26.9282L27.0549 26.7468C26.9548 26.6467 26.8172 26.5654 26.7484 26.5654C26.6796 26.5654 23.8838 27.3973 20.5376 28.4168C16.3658 29.6865 14.4018 30.3119 14.308 30.3995L14.1642 30.5246V34.9215V39.3185L14.308 39.4686C14.3831 39.5562 15.6527 40.1942 17.1664 40.9134C18.6612 41.6265 19.9059 42.2269 19.9309 42.2519C19.9559 42.2769 19.443 42.5334 18.7863 42.8273C18.1358 43.1213 17.5291 43.4278 17.4478 43.5091C17.2539 43.6967 17.2477 43.9594 17.4291 44.1658C17.5104 44.2534 18.2547 44.6474 19.1553 45.0727L20.7377 45.8233L20.9566 45.3479C21.0755 45.0852 21.163 44.8663 21.1568 44.8601C21.1443 44.8476 20.6939 44.6349 20.1498 44.3785C19.6056 44.122 19.1678 43.8844 19.1741 43.8531C19.1928 43.7968 21.138 42.8899 21.2443 42.8899C21.2756 42.8899 22.4765 43.4528 23.9213 44.1408C25.4287 44.8601 26.6108 45.3917 26.7171 45.3917C26.8485 45.3917 36.812 41.1824 37.9066 40.6633C38.213 40.5194 38.2443 40.3693 38.2443 39.1059C38.2443 38.4679 38.2631 37.9488 38.2944 37.9488C38.3194 37.955 39.6579 38.568 41.2778 39.3248L44.2112 40.6945L43.5607 40.9947C43.1979 41.1636 41.1089 42.1143 38.9198 43.1088C36.7244 44.1095 34.9294 44.9539 34.9294 44.9914C34.9294 45.054 35.2984 45.8921 35.3297 45.8921C35.3359 45.8921 37.6877 44.8226 40.5585 43.5153C43.6545 42.1081 45.8249 41.0886 45.8937 41.0073C45.95 40.9322 46 40.7946 46 40.7008C46 40.607 45.95 40.4694 45.8937 40.3943C45.8311 40.3255 44.0486 39.4624 41.9345 38.4742C39.8205 37.4922 38.0567 36.6541 38.0129 36.6228C37.9691 36.5915 35.7487 35.6221 33.0718 34.4775C30.3886 33.3266 28.2495 32.3759 28.2995 32.3572C28.3496 32.3384 28.7186 32.2133 29.1189 32.0757L29.8444 31.8318L37.3749 34.9528C41.5155 36.6666 44.9868 38.0739 45.0806 38.0739C45.1869 38.0739 45.3183 38.0113 45.4058 37.9175L45.5622 37.7674V29.1736V20.5798L45.4246 20.4547C45.2495 20.2921 30.0446 13.9937 29.8507 14C29.7694 14 26.1792 15.1821 21.8636 16.6206ZM32.0523 15.9827L33.5221 16.5894L33.5409 24.3951C33.5471 28.6857 33.5346 32.1945 33.5096 32.1945C33.4783 32.1945 32.7653 31.9068 31.9147 31.5566L30.3635 30.9186V23.1066C30.3635 15.7012 30.3698 15.3009 30.4761 15.3322C30.5324 15.3509 31.2454 15.6449 32.0523 15.9827ZM37.5 18.2343L40.3396 19.4102L40.3584 22.0496C40.3709 24.1199 40.3584 24.689 40.2958 24.689C40.252 24.689 39.883 24.5577 39.4827 24.3951L38.7447 24.1011V23.238V22.3748H38.2443H37.7439V23.213V24.0511L36.2116 24.4326C35.3672 24.639 34.6542 24.8141 34.6167 24.8141C34.5729 24.8141 34.5541 23.5194 34.5541 20.9363C34.5541 18.8035 34.5791 17.0584 34.6041 17.0584C34.6292 17.0584 35.9364 17.5901 37.5 18.2343ZM42.8352 20.4422C43.5982 20.7549 44.2925 21.0551 44.3926 21.0989L44.5614 21.1927V28.9734C44.5614 33.2578 44.5427 36.7604 44.5177 36.7604C44.4864 36.7604 43.7796 36.4727 42.9353 36.1162L41.4029 35.4782L41.3841 27.6725C41.3779 23.3818 41.3904 19.873 41.4154 19.873C41.4404 19.873 42.0784 20.1294 42.8352 20.4422ZM37.7314 25.6898L37.7127 26.1526L36.3054 26.5029C35.5298 26.6968 34.8168 26.8781 34.723 26.9032L34.5479 26.9469L34.5666 26.4278L34.5854 25.9149L36.1178 25.5272C36.9621 25.3208 37.6751 25.1644 37.7002 25.1894C37.7252 25.2144 37.7439 25.4396 37.7314 25.6898ZM39.6579 25.5897L40.3396 25.8649L40.3584 26.3465C40.3771 26.9032 40.4835 26.8907 39.4577 26.4779L38.776 26.2027L38.7572 25.721C38.7384 25.1644 38.6321 25.1769 39.6579 25.5897ZM37.7439 29.3174V31.3752L37.4813 31.444C37.3311 31.4815 37.1122 31.5378 36.9934 31.5753C36.8746 31.6066 36.7557 31.6316 36.7244 31.6316C36.6994 31.6316 36.6869 30.6997 36.6932 29.5551L36.7119 27.4786L37.1185 27.3723C37.819 27.1909 37.7439 26.9657 37.7439 29.3174ZM39.6203 27.6787L40.3396 27.9727L40.3584 30.0305C40.3709 31.6629 40.3584 32.0757 40.2958 32.0507C40.252 32.0382 39.883 31.8881 39.4827 31.7255L38.7447 31.4315V29.405C38.7447 27.8226 38.7634 27.3785 38.826 27.3785C38.8635 27.3848 39.2263 27.5161 39.6203 27.6787ZM35.6174 29.8366V31.9193L35.1671 32.0257C34.9169 32.0882 34.6729 32.132 34.6354 32.132C34.5729 32.132 34.5541 31.6754 34.5541 30.0742V28.0165L35.042 27.8914C35.3047 27.8226 35.5423 27.7663 35.5736 27.76C35.5986 27.7538 35.6174 28.692 35.6174 29.8366ZM26.173 29.8741V31.9319L25.9791 32.0007C25.8665 32.0382 25.7539 32.0695 25.7289 32.0695C25.6976 32.0695 25.6726 31.6379 25.6726 31.1125C25.6726 30.068 25.6288 29.9054 25.3286 29.7615C25.1597 29.6802 25.0471 29.7115 23.4647 30.2306C22.4077 30.5809 21.726 30.8373 21.6321 30.9249C21.482 31.0625 21.482 31.0812 21.482 32.2196V33.3704L21.0442 33.5018C20.8065 33.5768 20.5689 33.6519 20.5126 33.6706C20.4313 33.7019 20.4187 33.5768 20.4187 32.6761C20.4187 31.6817 20.4125 31.6316 20.2749 31.469C20.1686 31.3439 20.0685 31.3001 19.9246 31.3064C19.812 31.3064 18.9927 31.5566 18.1045 31.8505C16.8036 32.2821 16.4533 32.426 16.3533 32.5511C16.2407 32.7012 16.2282 32.8075 16.2282 33.8458V34.9778L15.7403 35.1217C15.4714 35.1967 15.2337 35.2593 15.2087 35.2593C15.1837 35.2593 15.1649 34.3336 15.1649 33.2078V31.15L16.3408 30.7935C16.985 30.5934 19.4243 29.8491 21.7635 29.1298C24.1027 28.4168 26.0541 27.8288 26.0979 27.8226C26.1542 27.8163 26.173 28.2667 26.173 29.8741ZM24.6093 31.6817V32.4197L23.6273 32.7137C23.0832 32.8763 22.6204 33.0076 22.5953 33.0076C22.5641 33.0076 22.5453 32.7012 22.5453 32.3259V31.6441L23.5648 31.3001C24.1215 31.1062 24.5843 30.9499 24.5968 30.9499C24.6031 30.9436 24.6093 31.2751 24.6093 31.6817ZM39.3201 32.8012L40.3709 33.2203V34.1147C40.3709 34.6088 40.3459 35.0091 40.3146 35.0091C40.2833 35.0091 39.2638 34.5963 38.0504 34.0959C36.837 33.5956 35.7738 33.1578 35.6924 33.1265C35.6049 33.0952 35.5548 33.0514 35.5736 33.0327C35.6236 32.9764 37.9378 32.3947 38.1192 32.3884C38.2068 32.3822 38.7447 32.5698 39.3201 32.8012ZM19.343 33.3016L19.3242 34.0271L18.4485 34.2961C17.9669 34.4462 17.5104 34.5775 17.4353 34.6026C17.2915 34.6338 17.2915 34.6338 17.2915 33.9271V33.2266L18.2484 32.9013C18.7675 32.7262 19.2366 32.5761 19.2804 32.5761C19.343 32.5698 19.3555 32.7387 19.343 33.3016ZM29.7381 34.1898L32.6465 35.4407L32.365 35.5595C32.2086 35.6283 30.1446 36.5352 27.7679 37.5735C25.3974 38.6118 23.4084 39.4749 23.3584 39.4936C23.2708 39.5187 16.3533 36.2663 16.2032 36.1287C16.1719 36.1037 16.272 36.0474 16.4221 36.0036C16.5722 35.9536 18.9239 35.2405 21.6384 34.4087C24.3591 33.5768 26.6358 32.9076 26.7046 32.9201C26.7734 32.9326 28.1369 33.5018 29.7381 34.1898ZM35.1671 36.5165C35.8238 36.7979 36.3617 37.0356 36.3492 37.0481C36.3054 37.0919 26.936 41.0948 26.8109 41.1261C26.7171 41.1449 26.3231 40.9885 25.6413 40.6633C25.0722 40.3881 24.6093 40.1504 24.6093 40.1316C24.6093 40.1003 33.8036 36.0411 33.9286 36.0161C33.9474 36.0098 34.5041 36.235 35.1671 36.5165ZM20.744 39.4811L26.1417 42.058L26.1605 43.04C26.1667 43.5779 26.1542 44.0157 26.1292 44.0157C26.0666 44.0157 15.34 38.887 15.2462 38.8119C15.1837 38.7619 15.1649 38.4804 15.1649 37.7861C15.1649 36.9668 15.1774 36.8292 15.2587 36.8605C15.3087 36.8792 17.7793 38.0613 20.744 39.4811ZM37.181 38.8682V39.8564L32.315 41.9329C29.6443 43.0775 27.4051 44.0282 27.3488 44.0532C27.2425 44.0908 27.2362 44.0157 27.2362 43.1025V42.1081L32.1336 40.0003C34.8231 38.8432 37.0622 37.8987 37.106 37.8925C37.1623 37.8862 37.181 38.1239 37.181 38.8682Z" fill="black"/>
<path d="M21.8636 16.6206C17.5541 18.0654 14.014 19.2538 14.0015 19.2663C13.9765 19.2851 14.2642 20.1857 14.308 20.2233C14.3205 20.2358 17.7043 19.1225 21.8323 17.7465C25.9541 16.3704 29.3378 15.2446 29.344 15.2446C29.3565 15.2446 29.3565 18.7659 29.3503 23.0754L29.3315 30.8998L28.3308 31.2376C27.7804 31.419 27.3113 31.5691 27.2863 31.5691C27.255 31.5691 27.2362 30.5246 27.2362 29.2486V26.9282L27.0549 26.7468C26.9548 26.6467 26.8172 26.5654 26.7484 26.5654C26.6796 26.5654 23.8838 27.3973 20.5376 28.4168C16.3658 29.6865 14.4018 30.3119 14.308 30.3995L14.1642 30.5246V34.9215V39.3185L14.308 39.4686C14.3831 39.5562 15.6527 40.1942 17.1664 40.9134C18.6612 41.6265 19.9059 42.2269 19.9309 42.2519C19.9559 42.2769 19.443 42.5334 18.7863 42.8273C18.1358 43.1213 17.5291 43.4278 17.4478 43.5091C17.2539 43.6967 17.2477 43.9594 17.4291 44.1658C17.5104 44.2534 18.2547 44.6474 19.1553 45.0727L20.7377 45.8233L20.9566 45.3479C21.0755 45.0852 21.163 44.8663 21.1568 44.8601C21.1443 44.8476 20.6939 44.6349 20.1498 44.3785C19.6056 44.122 19.1678 43.8844 19.1741 43.8531C19.1928 43.7968 21.138 42.8899 21.2443 42.8899C21.2756 42.8899 22.4765 43.4528 23.9213 44.1408C25.4287 44.8601 26.6108 45.3917 26.7171 45.3917C26.8485 45.3917 36.812 41.1824 37.9066 40.6633C38.213 40.5194 38.2443 40.3693 38.2443 39.1059C38.2443 38.4679 38.2631 37.9488 38.2944 37.9488C38.3194 37.955 39.6579 38.568 41.2778 39.3248L44.2112 40.6945L43.5607 40.9947C43.1979 41.1636 41.1089 42.1143 38.9198 43.1088C36.7244 44.1095 34.9294 44.9539 34.9294 44.9914C34.9294 45.054 35.2984 45.8921 35.3297 45.8921C35.3359 45.8921 37.6877 44.8226 40.5585 43.5153C43.6545 42.1081 45.8249 41.0886 45.8937 41.0073C45.95 40.9322 46 40.7946 46 40.7008C46 40.607 45.95 40.4694 45.8937 40.3943C45.8311 40.3255 44.0486 39.4624 41.9345 38.4742C39.8205 37.4922 38.0567 36.6541 38.0129 36.6228C37.9691 36.5915 35.7487 35.6221 33.0718 34.4775C30.3886 33.3266 28.2495 32.3759 28.2995 32.3572C28.3496 32.3384 28.7186 32.2133 29.1189 32.0757L29.8444 31.8318L37.3749 34.9528C41.5155 36.6666 44.9868 38.0739 45.0806 38.0739C45.1869 38.0739 45.3183 38.0113 45.4058 37.9175L45.5622 37.7674V29.1736V20.5798L45.4246 20.4547C45.2495 20.2921 30.0446 13.9937 29.8507 14C29.7694 14 26.1792 15.1821 21.8636 16.6206ZM32.0523 15.9827L33.5221 16.5894L33.5409 24.3951C33.5471 28.6857 33.5346 32.1945 33.5096 32.1945C33.4783 32.1945 32.7653 31.9068 31.9147 31.5566L30.3635 30.9186V23.1066C30.3635 15.7012 30.3698 15.3009 30.4761 15.3322C30.5324 15.3509 31.2454 15.6449 32.0523 15.9827ZM37.5 18.2343L40.3396 19.4102L40.3584 22.0496C40.3709 24.1199 40.3584 24.689 40.2958 24.689C40.252 24.689 39.883 24.5577 39.4827 24.3951L38.7447 24.1011V23.238V22.3748H38.2443H37.7439V23.213V24.0511L36.2116 24.4326C35.3672 24.639 34.6542 24.8141 34.6167 24.8141C34.5729 24.8141 34.5541 23.5194 34.5541 20.9363C34.5541 18.8035 34.5791 17.0584 34.6041 17.0584C34.6292 17.0584 35.9364 17.5901 37.5 18.2343ZM42.8352 20.4422C43.5982 20.7549 44.2925 21.0551 44.3926 21.0989L44.5614 21.1927V28.9734C44.5614 33.2578 44.5427 36.7604 44.5177 36.7604C44.4864 36.7604 43.7796 36.4727 42.9353 36.1162L41.4029 35.4782L41.3841 27.6725C41.3779 23.3818 41.3904 19.873 41.4154 19.873C41.4404 19.873 42.0784 20.1294 42.8352 20.4422ZM37.7314 25.6898L37.7127 26.1526L36.3054 26.5029C35.5298 26.6968 34.8168 26.8781 34.723 26.9032L34.5479 26.9469L34.5666 26.4278L34.5854 25.9149L36.1178 25.5272C36.9621 25.3208 37.6751 25.1644 37.7002 25.1894C37.7252 25.2144 37.7439 25.4396 37.7314 25.6898ZM39.6579 25.5897L40.3396 25.8649L40.3584 26.3465C40.3771 26.9032 40.4835 26.8907 39.4577 26.4779L38.776 26.2027L38.7572 25.721C38.7384 25.1644 38.6321 25.1769 39.6579 25.5897ZM37.7439 29.3174V31.3752L37.4813 31.444C37.3311 31.4815 37.1122 31.5378 36.9934 31.5753C36.8746 31.6066 36.7557 31.6316 36.7244 31.6316C36.6994 31.6316 36.6869 30.6997 36.6932 29.5551L36.7119 27.4786L37.1185 27.3723C37.819 27.1909 37.7439 26.9657 37.7439 29.3174ZM39.6203 27.6787L40.3396 27.9727L40.3584 30.0305C40.3709 31.6629 40.3584 32.0757 40.2958 32.0507C40.252 32.0382 39.883 31.8881 39.4827 31.7255L38.7447 31.4315V29.405C38.7447 27.8226 38.7634 27.3785 38.826 27.3785C38.8635 27.3848 39.2263 27.5161 39.6203 27.6787ZM35.6174 29.8366V31.9193L35.1671 32.0257C34.9169 32.0882 34.6729 32.132 34.6354 32.132C34.5729 32.132 34.5541 31.6754 34.5541 30.0742V28.0165L35.042 27.8914C35.3047 27.8226 35.5423 27.7663 35.5736 27.76C35.5986 27.7538 35.6174 28.692 35.6174 29.8366ZM26.173 29.8741V31.9319L25.9791 32.0007C25.8665 32.0382 25.7539 32.0695 25.7289 32.0695C25.6976 32.0695 25.6726 31.6379 25.6726 31.1125C25.6726 30.068 25.6288 29.9054 25.3286 29.7615C25.1597 29.6802 25.0471 29.7115 23.4647 30.2306C22.4077 30.5809 21.726 30.8373 21.6321 30.9249C21.482 31.0625 21.482 31.0812 21.482 32.2196V33.3704L21.0442 33.5018C20.8065 33.5768 20.5689 33.6519 20.5126 33.6706C20.4313 33.7019 20.4187 33.5768 20.4187 32.6761C20.4187 31.6817 20.4125 31.6316 20.2749 31.469C20.1686 31.3439 20.0685 31.3001 19.9246 31.3064C19.812 31.3064 18.9927 31.5566 18.1045 31.8505C16.8036 32.2821 16.4533 32.426 16.3533 32.5511C16.2407 32.7012 16.2282 32.8075 16.2282 33.8458V34.9778L15.7403 35.1217C15.4714 35.1967 15.2337 35.2593 15.2087 35.2593C15.1837 35.2593 15.1649 34.3336 15.1649 33.2078V31.15L16.3408 30.7935C16.985 30.5934 19.4243 29.8491 21.7635 29.1298C24.1027 28.4168 26.0541 27.8288 26.0979 27.8226C26.1542 27.8163 26.173 28.2667 26.173 29.8741ZM24.6093 31.6817V32.4197L23.6273 32.7137C23.0832 32.8763 22.6204 33.0076 22.5953 33.0076C22.5641 33.0076 22.5453 32.7012 22.5453 32.3259V31.6441L23.5648 31.3001C24.1215 31.1062 24.5843 30.9499 24.5968 30.9499C24.6031 30.9436 24.6093 31.2751 24.6093 31.6817ZM39.3201 32.8012L40.3709 33.2203V34.1147C40.3709 34.6088 40.3459 35.0091 40.3146 35.0091C40.2833 35.0091 39.2638 34.5963 38.0504 34.0959C36.837 33.5956 35.7738 33.1578 35.6924 33.1265C35.6049 33.0952 35.5548 33.0514 35.5736 33.0327C35.6236 32.9764 37.9378 32.3947 38.1192 32.3884C38.2068 32.3822 38.7447 32.5698 39.3201 32.8012ZM19.343 33.3016L19.3242 34.0271L18.4485 34.2961C17.9669 34.4462 17.5104 34.5775 17.4353 34.6026C17.2915 34.6338 17.2915 34.6338 17.2915 33.9271V33.2266L18.2484 32.9013C18.7675 32.7262 19.2366 32.5761 19.2804 32.5761C19.343 32.5698 19.3555 32.7387 19.343 33.3016ZM29.7381 34.1898L32.6465 35.4407L32.365 35.5595C32.2086 35.6283 30.1446 36.5352 27.7679 37.5735C25.3974 38.6118 23.4084 39.4749 23.3584 39.4936C23.2708 39.5187 16.3533 36.2663 16.2032 36.1287C16.1719 36.1037 16.272 36.0474 16.4221 36.0036C16.5722 35.9536 18.9239 35.2405 21.6384 34.4087C24.3591 33.5768 26.6358 32.9076 26.7046 32.9201C26.7734 32.9326 28.1369 33.5018 29.7381 34.1898ZM35.1671 36.5165C35.8238 36.7979 36.3617 37.0356 36.3492 37.0481C36.3054 37.0919 26.936 41.0948 26.8109 41.1261C26.7171 41.1449 26.3231 40.9885 25.6413 40.6633C25.0722 40.3881 24.6093 40.1504 24.6093 40.1316C24.6093 40.1003 33.8036 36.0411 33.9286 36.0161C33.9474 36.0098 34.5041 36.235 35.1671 36.5165ZM20.744 39.4811L26.1417 42.058L26.1605 43.04C26.1667 43.5779 26.1542 44.0157 26.1292 44.0157C26.0666 44.0157 15.34 38.887 15.2462 38.8119C15.1837 38.7619 15.1649 38.4804 15.1649 37.7861C15.1649 36.9668 15.1774 36.8292 15.2587 36.8605C15.3087 36.8792 17.7793 38.0613 20.744 39.4811ZM37.181 38.8682V39.8564L32.315 41.9329C29.6443 43.0775 27.4051 44.0282 27.3488 44.0532C27.2425 44.0908 27.2362 44.0157 27.2362 43.1025V42.1081L32.1336 40.0003C34.8231 38.8432 37.0622 37.8987 37.106 37.8925C37.1623 37.8862 37.181 38.1239 37.181 38.8682Z" fill="url(#paint0_linear_222_724)"/>
</g>
<g id="Vector_2">
<path d="M20.1688 19.7979L15.384 21.4053L15.2714 21.6243C15.1713 21.8244 15.1651 22.0871 15.1776 25.0768L15.1964 28.3042L15.3465 28.4668C15.4465 28.5731 15.5654 28.6294 15.6905 28.6294C15.8719 28.6294 25.1036 25.5897 25.3976 25.4333C25.4726 25.3958 25.5665 25.2957 25.604 25.2081C25.654 25.1081 25.6728 24.0573 25.6728 21.8056V18.547L25.4914 18.3656C25.3726 18.2468 25.2475 18.1842 25.1286 18.1905C25.0348 18.1905 22.8019 18.916 20.1688 19.7979ZM24.6095 22.0246V24.614L20.4627 25.9962C18.186 26.7593 16.3034 27.3785 16.2721 27.3785C16.2471 27.3785 16.2346 26.2151 16.2409 24.7953L16.2596 22.2184L20.3877 20.8299C22.6581 20.0669 24.5345 19.4414 24.5657 19.4414C24.5907 19.4352 24.6095 20.5985 24.6095 22.0246Z" fill="black"/>
<path d="M20.1688 19.7979L15.384 21.4053L15.2714 21.6243C15.1713 21.8244 15.1651 22.0871 15.1776 25.0768L15.1964 28.3042L15.3465 28.4668C15.4465 28.5731 15.5654 28.6294 15.6905 28.6294C15.8719 28.6294 25.1036 25.5897 25.3976 25.4333C25.4726 25.3958 25.5665 25.2957 25.604 25.2081C25.654 25.1081 25.6728 24.0573 25.6728 21.8056V18.547L25.4914 18.3656C25.3726 18.2468 25.2475 18.1842 25.1286 18.1905C25.0348 18.1905 22.8019 18.916 20.1688 19.7979ZM24.6095 22.0246V24.614L20.4627 25.9962C18.186 26.7593 16.3034 27.3785 16.2721 27.3785C16.2471 27.3785 16.2346 26.2151 16.2409 24.7953L16.2596 22.2184L20.3877 20.8299C22.6581 20.0669 24.5345 19.4414 24.5657 19.4414C24.5907 19.4352 24.6095 20.5985 24.6095 22.0246Z" fill="url(#paint0_linear_222_724)"/>
</g>
<g id="Vector_3">
<path d="M21.7196 22.4186L20.8002 23.338L20.0809 23.1066C19.6743 22.9753 19.3116 22.8939 19.249 22.919C19.1427 22.9565 17.6979 23.9009 17.5791 24.001C17.5415 24.0385 17.8793 24.6202 18.0794 24.8704C18.0919 24.8829 18.4109 24.689 18.7862 24.4388L19.4742 23.9885L20.1497 24.2137C20.5187 24.3388 20.9065 24.4388 21.0066 24.4388C21.1629 24.4388 21.3693 24.2637 22.3075 23.3318L23.4208 22.2247L23.0643 21.8619C22.8642 21.6618 22.6891 21.4992 22.6703 21.4992C22.6515 21.4992 22.2262 21.912 21.7196 22.4186Z" fill="black"/>
<path d="M21.7196 22.4186L20.8002 23.338L20.0809 23.1066C19.6743 22.9753 19.3116 22.8939 19.249 22.919C19.1427 22.9565 17.6979 23.9009 17.5791 24.001C17.5415 24.0385 17.8793 24.6202 18.0794 24.8704C18.0919 24.8829 18.4109 24.689 18.7862 24.4388L19.4742 23.9885L20.1497 24.2137C20.5187 24.3388 20.9065 24.4388 21.0066 24.4388C21.1629 24.4388 21.3693 24.2637 22.3075 23.3318L23.4208 22.2247L23.0643 21.8619C22.8642 21.6618 22.6891 21.4992 22.6703 21.4992C22.6515 21.4992 22.2262 21.912 21.7196 22.4186Z" fill="url(#paint0_linear_222_724)"/>
</g>
</g>
</g>
<defs>
<linearGradient id="paint0_linear_222_724" x1="15" y1="30.0014" x2="45" y2="30.0014" gradientUnits="userSpaceOnUse">
<stop stop-color="#0091D7"/>
<stop offset="1" stop-color="#FE0FD4"/>
</linearGradient>
</defs>
</svg>
