<svg width="60" height="60" viewBox="0 0 60 60" fill="none" xmlns="http://www.w3.org/2000/svg">
<g id="Group 770985">
<g id="Group 97">
<rect id="Rectangle 24" width="60" height="60" rx="7" fill="white"/>
</g>
<g id="Group">
<g id="Vector">
<path d="M20.5521 13.0159C17.3317 13.3752 14.5372 15.6108 13.4461 18.6914C12.9737 20.0421 13.0003 19.3102 13.0003 30.0025C13.0003 39.1445 13.0069 39.6435 13.1267 40.1824C13.8785 43.609 16.3936 46.124 19.8202 46.8759C20.3591 46.9957 20.8581 47.0023 30.0001 47.0023C39.1421 47.0023 39.6412 46.9957 40.1801 46.8759C43.6067 46.124 46.1217 43.609 46.8736 40.1824C46.9933 39.6435 47 39.1445 47 30.0025C47 20.8605 46.9933 20.3614 46.8736 19.8225C46.1217 16.4026 43.7131 13.9807 40.2134 13.1224C39.7875 13.0226 38.9625 13.0092 30.2663 13.0026C25.0499 12.9959 20.6785 13.0026 20.5521 13.0159ZM39.6145 14.666C40.3265 14.7791 40.9652 14.992 41.6439 15.3313C42.3225 15.6707 42.6486 15.9035 43.254 16.4824C44.3985 17.5802 45.0705 18.8311 45.3366 20.3814C45.4896 21.2663 45.4896 38.7386 45.3366 39.6235C45.2035 40.3754 45.0239 40.9409 44.6846 41.6129C44.3519 42.2849 44.0658 42.6842 43.4736 43.2963C42.409 44.4074 41.1515 45.0728 39.6212 45.3389C38.7562 45.4853 21.2973 45.492 20.3857 45.3389C18.8754 45.0927 17.5779 44.4008 16.4801 43.2564C15.9012 42.6509 15.6684 42.3249 15.329 41.6462C14.9897 40.9675 14.7768 40.3288 14.6637 39.6169C14.5173 38.7253 14.5173 21.2796 14.6637 20.3881C14.9032 18.911 15.5685 17.6335 16.6331 16.5822C17.4449 15.7838 18.3364 15.2382 19.3744 14.8989C20.3591 14.5795 20.2859 14.5795 29.9336 14.5728C37.6185 14.5662 39.1089 14.5795 39.6145 14.666Z" fill="black"/>
<path d="M20.5521 13.0159C17.3317 13.3752 14.5372 15.6108 13.4461 18.6914C12.9737 20.0421 13.0003 19.3102 13.0003 30.0025C13.0003 39.1445 13.0069 39.6435 13.1267 40.1824C13.8785 43.609 16.3936 46.124 19.8202 46.8759C20.3591 46.9957 20.8581 47.0023 30.0001 47.0023C39.1421 47.0023 39.6412 46.9957 40.1801 46.8759C43.6067 46.124 46.1217 43.609 46.8736 40.1824C46.9933 39.6435 47 39.1445 47 30.0025C47 20.8605 46.9933 20.3614 46.8736 19.8225C46.1217 16.4026 43.7131 13.9807 40.2134 13.1224C39.7875 13.0226 38.9625 13.0092 30.2663 13.0026C25.0499 12.9959 20.6785 13.0026 20.5521 13.0159ZM39.6145 14.666C40.3265 14.7791 40.9652 14.992 41.6439 15.3313C42.3225 15.6707 42.6486 15.9035 43.254 16.4824C44.3985 17.5802 45.0705 18.8311 45.3366 20.3814C45.4896 21.2663 45.4896 38.7386 45.3366 39.6235C45.2035 40.3754 45.0239 40.9409 44.6846 41.6129C44.3519 42.2849 44.0658 42.6842 43.4736 43.2963C42.409 44.4074 41.1515 45.0728 39.6212 45.3389C38.7562 45.4853 21.2973 45.492 20.3857 45.3389C18.8754 45.0927 17.5779 44.4008 16.4801 43.2564C15.9012 42.6509 15.6684 42.3249 15.329 41.6462C14.9897 40.9675 14.7768 40.3288 14.6637 39.6169C14.5173 38.7253 14.5173 21.2796 14.6637 20.3881C14.9032 18.911 15.5685 17.6335 16.6331 16.5822C17.4449 15.7838 18.3364 15.2382 19.3744 14.8989C20.3591 14.5795 20.2859 14.5795 29.9336 14.5728C37.6185 14.5662 39.1089 14.5795 39.6145 14.666Z" fill="url(#paint0_linear_222_724)"/>
</g>
<g id="Vector_2">
<path d="M21.2168 25.2119V29.204H22.0152H22.8137L22.827 26.5759L22.8469 23.9477L29.4672 30.568L36.0875 37.1883H33.4394H30.7979V37.9867V38.7852H34.7901H38.7822V34.793V30.8009H37.9838H37.1854V33.4423V36.0905L30.5651 29.4702L23.9448 22.8499L26.5729 22.8299L29.2011 22.8166V22.0182V21.2197H25.2089H21.2168V25.2119Z" fill="black"/>
<path d="M21.2168 25.2119V29.204H22.0152H22.8137L22.827 26.5759L22.8469 23.9477L29.4672 30.568L36.0875 37.1883H33.4394H30.7979V37.9867V38.7852H34.7901H38.7822V34.793V30.8009H37.9838H37.1854V33.4423V36.0905L30.5651 29.4702L23.9448 22.8499L26.5729 22.8299L29.2011 22.8166V22.0182V21.2197H25.2089H21.2168V25.2119Z" fill="url(#paint0_linear_222_724)"/>
</g>
</g>
</g>
<defs>
<linearGradient id="paint0_linear_222_724" x1="15" y1="30.0014" x2="45" y2="30.0014" gradientUnits="userSpaceOnUse">
<stop stop-color="#0091D7"/>
<stop offset="1" stop-color="#FE0FD4"/>
</linearGradient>
</defs>
</svg>
