<svg width="60" height="60" viewBox="0 0 60 60" fill="none" xmlns="http://www.w3.org/2000/svg">
<g id="Group 91">
<rect id="Rectangle 24" width="60" height="60" rx="7" fill="white"/>
<g id="Group">
<g id="Vector">
<path d="M14.7207 14.0632C13.5405 14.31 12.7923 15.2588 12.7152 16.6009C12.6535 17.7194 13.0083 18.753 13.6948 19.4549L14.065 19.8406L13.6716 19.8869C12.9311 19.9872 11.8512 20.3034 11.3807 20.5502C11.1262 20.6891 10.7636 20.9745 10.5708 21.1828C10.054 21.7613 10 22.0312 10 24.1448V25.9497L10.1928 26.1348C10.4165 26.3663 10.6171 26.3817 10.8562 26.1811C11.0413 26.0346 11.0413 26.0191 11.0799 24.1139C11.1262 21.9695 11.1185 21.9927 11.7355 21.5839C13.07 20.7122 16.9962 20.6042 18.778 21.391C19.3874 21.661 19.7962 22.147 19.7962 22.6098C19.7962 22.872 20.0739 23.1651 20.3284 23.1651C20.421 23.1651 20.583 23.0726 20.6987 22.9646C20.8761 22.7872 20.8915 22.7332 20.8452 22.3706C20.7372 21.5916 20.205 20.9128 19.3797 20.4885C18.9786 20.288 17.8678 19.9794 17.1967 19.8869L16.7879 19.8329L17.1196 19.5012C17.8138 18.807 18.2226 17.6654 18.1532 16.6086C18.0452 15.0428 17.1504 14.1094 15.6695 14.0246C15.3301 14.0092 14.9058 14.0246 14.7207 14.0632ZM16.0551 15.1508C16.4639 15.2665 16.9036 15.7139 17.0193 16.1458C17.1813 16.732 17.081 17.5265 16.7802 18.1282C16.4331 18.8224 16.0088 19.1541 15.4689 19.1541C15.0061 19.1541 14.7361 19.023 14.3967 18.645C14.0265 18.213 13.8491 17.7348 13.8028 17.0174C13.7488 16.2769 13.8799 15.8373 14.2347 15.4979C14.6435 15.1045 15.384 14.9656 16.0551 15.1508Z" fill="black"/>
<path d="M14.7207 14.0632C13.5405 14.31 12.7923 15.2588 12.7152 16.6009C12.6535 17.7194 13.0083 18.753 13.6948 19.4549L14.065 19.8406L13.6716 19.8869C12.9311 19.9872 11.8512 20.3034 11.3807 20.5502C11.1262 20.6891 10.7636 20.9745 10.5708 21.1828C10.054 21.7613 10 22.0312 10 24.1448V25.9497L10.1928 26.1348C10.4165 26.3663 10.6171 26.3817 10.8562 26.1811C11.0413 26.0346 11.0413 26.0191 11.0799 24.1139C11.1262 21.9695 11.1185 21.9927 11.7355 21.5839C13.07 20.7122 16.9962 20.6042 18.778 21.391C19.3874 21.661 19.7962 22.147 19.7962 22.6098C19.7962 22.872 20.0739 23.1651 20.3284 23.1651C20.421 23.1651 20.583 23.0726 20.6987 22.9646C20.8761 22.7872 20.8915 22.7332 20.8452 22.3706C20.7372 21.5916 20.205 20.9128 19.3797 20.4885C18.9786 20.288 17.8678 19.9794 17.1967 19.8869L16.7879 19.8329L17.1196 19.5012C17.8138 18.807 18.2226 17.6654 18.1532 16.6086C18.0452 15.0428 17.1504 14.1094 15.6695 14.0246C15.3301 14.0092 14.9058 14.0246 14.7207 14.0632ZM16.0551 15.1508C16.4639 15.2665 16.9036 15.7139 17.0193 16.1458C17.1813 16.732 17.081 17.5265 16.7802 18.1282C16.4331 18.8224 16.0088 19.1541 15.4689 19.1541C15.0061 19.1541 14.7361 19.023 14.3967 18.645C14.0265 18.213 13.8491 17.7348 13.8028 17.0174C13.7488 16.2769 13.8799 15.8373 14.2347 15.4979C14.6435 15.1045 15.384 14.9656 16.0551 15.1508Z" fill="url(#paint0_linear_222_724)"/>
</g>
<g id="Vector_2">
<path d="M28.9059 14.1018C28.3968 14.2484 28.1037 14.4258 27.7257 14.8114C27.2784 15.2743 27.1009 15.7525 27.0624 16.6164C27.0084 17.8274 27.2784 18.6528 27.9957 19.4319L28.366 19.8407L27.9957 19.887C25.6894 20.2186 24.4629 21.0671 24.3626 22.4016C24.3318 22.7718 24.3549 22.8644 24.4938 23.0032C24.8409 23.3503 25.2266 23.1652 25.3885 22.5636C25.5197 22.039 25.6662 21.8231 26.0288 21.5916C26.8001 21.1057 27.9494 20.8897 29.7467 20.8897C31.5517 20.8897 32.6933 21.1057 33.4646 21.5916C33.8271 21.8231 33.9737 22.039 34.1048 22.5636C34.2205 23.0032 34.3748 23.1652 34.6602 23.1652C35.285 23.1652 35.3159 22.1702 34.7142 21.3062C34.29 20.6892 33.2872 20.2109 31.8911 19.9641L31.1351 19.833L31.5054 19.4319C32.2073 18.6605 32.485 17.7966 32.431 16.601C32.4079 16.0688 32.3461 15.7679 32.215 15.4671C31.999 14.958 31.3588 14.3563 30.8497 14.1789C30.3175 13.9938 29.415 13.963 28.9059 14.1018ZM30.3715 15.1586C31.0888 15.3977 31.4051 15.9068 31.3897 16.8401C31.382 17.7966 31.004 18.6142 30.4023 18.969C29.2916 19.617 28.1191 18.5294 28.1037 16.8401C28.096 15.9299 28.3968 15.4054 29.091 15.1586C29.4073 15.0506 30.0552 15.0429 30.3715 15.1586Z" fill="black"/>
<path d="M28.9059 14.1018C28.3968 14.2484 28.1037 14.4258 27.7257 14.8114C27.2784 15.2743 27.1009 15.7525 27.0624 16.6164C27.0084 17.8274 27.2784 18.6528 27.9957 19.4319L28.366 19.8407L27.9957 19.887C25.6894 20.2186 24.4629 21.0671 24.3626 22.4016C24.3318 22.7718 24.3549 22.8644 24.4938 23.0032C24.8409 23.3503 25.2266 23.1652 25.3885 22.5636C25.5197 22.039 25.6662 21.8231 26.0288 21.5916C26.8001 21.1057 27.9494 20.8897 29.7467 20.8897C31.5517 20.8897 32.6933 21.1057 33.4646 21.5916C33.8271 21.8231 33.9737 22.039 34.1048 22.5636C34.2205 23.0032 34.3748 23.1652 34.6602 23.1652C35.285 23.1652 35.3159 22.1702 34.7142 21.3062C34.29 20.6892 33.2872 20.2109 31.8911 19.9641L31.1351 19.833L31.5054 19.4319C32.2073 18.6605 32.485 17.7966 32.431 16.601C32.4079 16.0688 32.3461 15.7679 32.215 15.4671C31.999 14.958 31.3588 14.3563 30.8497 14.1789C30.3175 13.9938 29.415 13.963 28.9059 14.1018ZM30.3715 15.1586C31.0888 15.3977 31.4051 15.9068 31.3897 16.8401C31.382 17.7966 31.004 18.6142 30.4023 18.969C29.2916 19.617 28.1191 18.5294 28.1037 16.8401C28.096 15.9299 28.3968 15.4054 29.091 15.1586C29.4073 15.0506 30.0552 15.0429 30.3715 15.1586Z" fill="url(#paint0_linear_222_724)"/>
</g>
<g id="Vector_3">
<path d="M43.3371 14.0631C42.8666 14.1634 42.2649 14.5105 41.9641 14.8653C40.9845 16.0146 41.1773 18.3133 42.3652 19.4934L42.6815 19.8174L41.8021 19.9871C39.8275 20.3651 38.817 21.1364 38.6473 22.3783C38.601 22.7331 38.6164 22.7871 38.7938 22.9645C38.9095 23.0725 39.0792 23.1651 39.1795 23.1651C39.4186 23.1651 39.6963 22.8643 39.6963 22.5943C39.6963 21.8769 40.4368 21.3601 41.9333 21.0362C42.9283 20.8202 45.3272 20.8356 46.3223 21.067C47.4716 21.337 48.1504 21.7227 48.3432 22.224C48.3818 22.3243 48.4126 23.2037 48.4126 24.1756V25.9497L48.6055 26.1348C48.7057 26.2428 48.86 26.3276 48.9526 26.3276C49.0451 26.3276 49.1994 26.2428 49.2997 26.1348L49.4925 25.9497V24.1447C49.4925 22.0312 49.4385 21.7612 48.9217 21.1827C48.7289 20.9744 48.3663 20.689 48.1118 20.5502C47.6413 20.3034 46.5614 19.9871 45.8209 19.8868L45.4275 19.8406L45.7823 19.4703C47.001 18.2207 47.1399 15.9606 46.0677 14.7805C45.5278 14.1788 44.3013 13.8548 43.3371 14.0631ZM44.6716 15.1507C45.0804 15.2664 45.52 15.7138 45.6358 16.1458C45.7592 16.6086 45.6897 17.5573 45.4969 18.0047C45.3118 18.429 44.9261 18.8841 44.6253 19.0461C44.5096 19.1001 44.2396 19.154 44.0236 19.154C43.4837 19.154 43.0594 18.8224 42.7123 18.1281C42.4115 17.5342 42.3112 16.732 42.4655 16.1612C42.6969 15.305 43.6534 14.873 44.6716 15.1507Z" fill="black"/>
<path d="M43.3371 14.0631C42.8666 14.1634 42.2649 14.5105 41.9641 14.8653C40.9845 16.0146 41.1773 18.3133 42.3652 19.4934L42.6815 19.8174L41.8021 19.9871C39.8275 20.3651 38.817 21.1364 38.6473 22.3783C38.601 22.7331 38.6164 22.7871 38.7938 22.9645C38.9095 23.0725 39.0792 23.1651 39.1795 23.1651C39.4186 23.1651 39.6963 22.8643 39.6963 22.5943C39.6963 21.8769 40.4368 21.3601 41.9333 21.0362C42.9283 20.8202 45.3272 20.8356 46.3223 21.067C47.4716 21.337 48.1504 21.7227 48.3432 22.224C48.3818 22.3243 48.4126 23.2037 48.4126 24.1756V25.9497L48.6055 26.1348C48.7057 26.2428 48.86 26.3276 48.9526 26.3276C49.0451 26.3276 49.1994 26.2428 49.2997 26.1348L49.4925 25.9497V24.1447C49.4925 22.0312 49.4385 21.7612 48.9217 21.1827C48.7289 20.9744 48.3663 20.689 48.1118 20.5502C47.6413 20.3034 46.5614 19.9871 45.8209 19.8868L45.4275 19.8406L45.7823 19.4703C47.001 18.2207 47.1399 15.9606 46.0677 14.7805C45.5278 14.1788 44.3013 13.8548 43.3371 14.0631ZM44.6716 15.1507C45.0804 15.2664 45.52 15.7138 45.6358 16.1458C45.7592 16.6086 45.6897 17.5573 45.4969 18.0047C45.3118 18.429 44.9261 18.8841 44.6253 19.0461C44.5096 19.1001 44.2396 19.154 44.0236 19.154C43.4837 19.154 43.0594 18.8224 42.7123 18.1281C42.4115 17.5342 42.3112 16.732 42.4655 16.1612C42.6969 15.305 43.6534 14.873 44.6716 15.1507Z" fill="url(#paint0_linear_222_724)"/>
</g>
<g id="Vector_4">
<path d="M21.5628 24.5227C20.9612 24.7309 20.4829 25.1475 20.1821 25.7414C19.943 26.2196 19.9121 26.3353 19.889 27.0527C19.8581 27.7392 19.8813 27.9089 20.0587 28.4411C20.2747 29.0737 20.5524 29.5365 20.9457 29.9067C21.208 30.1613 21.1926 30.2615 20.8918 30.2615C20.4598 30.2615 19.0636 30.6626 18.5468 30.9326C17.6752 31.3877 17.1738 32.1128 17.1738 32.9227C17.1738 33.3084 17.3512 33.5012 17.6906 33.5012C17.9915 33.5012 18.1766 33.2852 18.2614 32.8301C18.4234 31.9585 19.4802 31.4648 21.6245 31.2489C22.3728 31.1794 22.7739 31.1794 23.5144 31.2489C25.7513 31.4803 26.7772 31.9662 26.9392 32.8764C27.0163 33.3238 27.1629 33.5012 27.4714 33.5012C27.8494 33.5012 28.0731 33.1927 28.0036 32.7684C27.8802 31.9971 27.3326 31.2643 26.6152 30.894C26.1987 30.6781 25.4196 30.4544 24.7331 30.3387C24.4168 30.2847 24.116 30.2307 24.0697 30.223C24.0157 30.2075 24.1314 30.0301 24.3243 29.8296C25.0031 29.1199 25.4196 27.8472 25.3039 26.829C25.1882 25.8031 24.7022 25.0472 23.9 24.6538C23.5221 24.4687 23.3524 24.4378 22.689 24.4224C22.1413 24.407 21.8174 24.4378 21.5628 24.5227ZM23.4989 25.6643C24.0157 25.9188 24.2317 26.3893 24.2317 27.2533C24.224 27.8086 24.1931 27.986 24.0003 28.3949C23.2752 29.9993 21.7094 29.8913 21.0923 28.1943C20.9072 27.6852 20.9149 26.6979 21.1 26.2813C21.4626 25.4946 22.5656 25.2015 23.4989 25.6643Z" fill="black"/>
<path d="M21.5628 24.5227C20.9612 24.7309 20.4829 25.1475 20.1821 25.7414C19.943 26.2196 19.9121 26.3353 19.889 27.0527C19.8581 27.7392 19.8813 27.9089 20.0587 28.4411C20.2747 29.0737 20.5524 29.5365 20.9457 29.9067C21.208 30.1613 21.1926 30.2615 20.8918 30.2615C20.4598 30.2615 19.0636 30.6626 18.5468 30.9326C17.6752 31.3877 17.1738 32.1128 17.1738 32.9227C17.1738 33.3084 17.3512 33.5012 17.6906 33.5012C17.9915 33.5012 18.1766 33.2852 18.2614 32.8301C18.4234 31.9585 19.4802 31.4648 21.6245 31.2489C22.3728 31.1794 22.7739 31.1794 23.5144 31.2489C25.7513 31.4803 26.7772 31.9662 26.9392 32.8764C27.0163 33.3238 27.1629 33.5012 27.4714 33.5012C27.8494 33.5012 28.0731 33.1927 28.0036 32.7684C27.8802 31.9971 27.3326 31.2643 26.6152 30.894C26.1987 30.6781 25.4196 30.4544 24.7331 30.3387C24.4168 30.2847 24.116 30.2307 24.0697 30.223C24.0157 30.2075 24.1314 30.0301 24.3243 29.8296C25.0031 29.1199 25.4196 27.8472 25.3039 26.829C25.1882 25.8031 24.7022 25.0472 23.9 24.6538C23.5221 24.4687 23.3524 24.4378 22.689 24.4224C22.1413 24.407 21.8174 24.4378 21.5628 24.5227ZM23.4989 25.6643C24.0157 25.9188 24.2317 26.3893 24.2317 27.2533C24.224 27.8086 24.1931 27.986 24.0003 28.3949C23.2752 29.9993 21.7094 29.8913 21.0923 28.1943C20.9072 27.6852 20.9149 26.6979 21.1 26.2813C21.4626 25.4946 22.5656 25.2015 23.4989 25.6643Z" fill="url(#paint0_linear_222_724)"/>
</g>
<g id="Vector_5">
<path d="M35.8624 24.5458C34.8982 24.8775 34.3119 25.672 34.1808 26.829C34.0728 27.8472 34.4894 29.1199 35.1681 29.8296C35.361 30.0301 35.4767 30.2075 35.4227 30.223C35.3764 30.2307 35.0756 30.2847 34.7593 30.3387C33.5406 30.5392 32.7924 30.8478 32.2061 31.3954C31.7973 31.7734 31.5659 32.2131 31.4888 32.7376C31.4194 33.2004 31.6276 33.5012 32.021 33.5012C32.3296 33.5012 32.4761 33.3238 32.5533 32.8764C32.7075 32.0048 33.7566 31.4803 35.8161 31.2566C37.7059 31.056 40.1357 31.4803 40.8376 32.1359C41.0767 32.3519 41.2387 32.6759 41.2387 32.9073C41.2387 33.2081 41.5164 33.5012 41.8095 33.5012C42.1566 33.5012 42.3186 33.3007 42.3109 32.8764C42.2877 31.5883 41.0304 30.6241 38.9863 30.331C38.6084 30.277 38.3076 30.2075 38.3076 30.1844C38.3076 30.1535 38.4155 30.0378 38.5467 29.9067C38.9401 29.5365 39.2178 29.0814 39.4337 28.4411C39.6111 27.9089 39.6343 27.7392 39.6034 27.0527C39.5803 26.3353 39.5494 26.2196 39.3103 25.7414C39.0018 25.1397 38.5235 24.7232 37.9065 24.5227C37.3819 24.353 36.3792 24.3607 35.8624 24.5458ZM37.4514 25.51C37.8216 25.5717 38.2227 25.9034 38.3924 26.2813C38.5775 26.6979 38.5852 27.6852 38.4001 28.1943C37.783 29.8913 36.2249 29.9993 35.4844 28.3949C35.2916 27.9783 35.2607 27.8163 35.2607 27.2147C35.2607 26.6207 35.2916 26.4742 35.4535 26.1888C35.6772 25.7877 36.0166 25.564 36.518 25.4869C36.8728 25.4251 36.9345 25.4251 37.4514 25.51Z" fill="black"/>
<path d="M35.8624 24.5458C34.8982 24.8775 34.3119 25.672 34.1808 26.829C34.0728 27.8472 34.4894 29.1199 35.1681 29.8296C35.361 30.0301 35.4767 30.2075 35.4227 30.223C35.3764 30.2307 35.0756 30.2847 34.7593 30.3387C33.5406 30.5392 32.7924 30.8478 32.2061 31.3954C31.7973 31.7734 31.5659 32.2131 31.4888 32.7376C31.4194 33.2004 31.6276 33.5012 32.021 33.5012C32.3296 33.5012 32.4761 33.3238 32.5533 32.8764C32.7075 32.0048 33.7566 31.4803 35.8161 31.2566C37.7059 31.056 40.1357 31.4803 40.8376 32.1359C41.0767 32.3519 41.2387 32.6759 41.2387 32.9073C41.2387 33.2081 41.5164 33.5012 41.8095 33.5012C42.1566 33.5012 42.3186 33.3007 42.3109 32.8764C42.2877 31.5883 41.0304 30.6241 38.9863 30.331C38.6084 30.277 38.3076 30.2075 38.3076 30.1844C38.3076 30.1535 38.4155 30.0378 38.5467 29.9067C38.9401 29.5365 39.2178 29.0814 39.4337 28.4411C39.6111 27.9089 39.6343 27.7392 39.6034 27.0527C39.5803 26.3353 39.5494 26.2196 39.3103 25.7414C39.0018 25.1397 38.5235 24.7232 37.9065 24.5227C37.3819 24.353 36.3792 24.3607 35.8624 24.5458ZM37.4514 25.51C37.8216 25.5717 38.2227 25.9034 38.3924 26.2813C38.5775 26.6979 38.5852 27.6852 38.4001 28.1943C37.783 29.8913 36.2249 29.9993 35.4844 28.3949C35.2916 27.9783 35.2607 27.8163 35.2607 27.2147C35.2607 26.6207 35.2916 26.4742 35.4535 26.1888C35.6772 25.7877 36.0166 25.564 36.518 25.4869C36.8728 25.4251 36.9345 25.4251 37.4514 25.51Z" fill="url(#paint0_linear_222_724)"/>
</g>
<g id="Vector_6">
<path d="M14.7053 34.7585C13.9648 34.9359 13.448 35.2908 13.1163 35.8616C12.3835 37.1111 12.6612 39.1012 13.7102 40.1503L14.0727 40.5128L13.7179 40.5591C12.2986 40.7519 11.2727 41.1608 10.6634 41.7778C10.0463 42.3949 10 42.6032 10 44.817V46.6219L10.1928 46.8071C10.432 47.0539 10.6479 47.0539 10.8871 46.8071L11.0799 46.6219V44.8247C11.0799 42.7883 11.0953 42.742 11.7047 42.2946C12.4221 41.7778 14.1036 41.477 15.8623 41.5464C17.9449 41.6313 19.1945 42.0401 19.6496 42.7883C19.7808 43.0043 19.7962 43.1894 19.7962 44.8247V46.6219L19.989 46.8071C20.2282 47.0539 20.4441 47.0539 20.691 46.8071L20.8915 46.6065L20.8607 44.6627C20.8375 42.8346 20.8298 42.7035 20.6678 42.4026C20.1587 41.4462 19.2794 40.9448 17.5516 40.6362L16.8033 40.5051L17.1427 40.1734C18.3692 38.9393 18.508 36.5635 17.4127 35.4373C16.8033 34.8125 15.6849 34.5348 14.7053 34.7585ZM16.2634 35.9001C17.0887 36.3244 17.351 37.5894 16.8342 38.7156C16.4794 39.4792 16.0397 39.8417 15.438 39.8417C14.5741 39.8417 13.8645 38.9393 13.7951 37.7437C13.7796 37.4274 13.8028 37.0186 13.8568 36.8335C13.9648 36.4092 14.3427 36.0004 14.7438 35.8461C15.0909 35.7227 15.9703 35.7459 16.2634 35.9001Z" fill="black"/>
<path d="M14.7053 34.7585C13.9648 34.9359 13.448 35.2908 13.1163 35.8616C12.3835 37.1111 12.6612 39.1012 13.7102 40.1503L14.0727 40.5128L13.7179 40.5591C12.2986 40.7519 11.2727 41.1608 10.6634 41.7778C10.0463 42.3949 10 42.6032 10 44.817V46.6219L10.1928 46.8071C10.432 47.0539 10.6479 47.0539 10.8871 46.8071L11.0799 46.6219V44.8247C11.0799 42.7883 11.0953 42.742 11.7047 42.2946C12.4221 41.7778 14.1036 41.477 15.8623 41.5464C17.9449 41.6313 19.1945 42.0401 19.6496 42.7883C19.7808 43.0043 19.7962 43.1894 19.7962 44.8247V46.6219L19.989 46.8071C20.2282 47.0539 20.4441 47.0539 20.691 46.8071L20.8915 46.6065L20.8607 44.6627C20.8375 42.8346 20.8298 42.7035 20.6678 42.4026C20.1587 41.4462 19.2794 40.9448 17.5516 40.6362L16.8033 40.5051L17.1427 40.1734C18.3692 38.9393 18.508 36.5635 17.4127 35.4373C16.8033 34.8125 15.6849 34.5348 14.7053 34.7585ZM16.2634 35.9001C17.0887 36.3244 17.351 37.5894 16.8342 38.7156C16.4794 39.4792 16.0397 39.8417 15.438 39.8417C14.5741 39.8417 13.8645 38.9393 13.7951 37.7437C13.7796 37.4274 13.8028 37.0186 13.8568 36.8335C13.9648 36.4092 14.3427 36.0004 14.7438 35.8461C15.0909 35.7227 15.9703 35.7459 16.2634 35.9001Z" fill="url(#paint0_linear_222_724)"/>
</g>
<g id="Vector_7">
<path d="M29.0838 34.7355C28.297 34.8975 27.5873 35.4528 27.2557 36.1856C27.0628 36.6253 26.9857 37.8209 27.1168 38.4303C27.2479 39.0319 27.5488 39.6181 27.9807 40.0887L28.3587 40.5052L27.8419 40.59C26.0215 40.8986 24.9647 41.4848 24.5328 42.4104C24.3554 42.7807 24.3477 42.8655 24.3477 44.7399C24.3477 46.5912 24.3554 46.6992 24.5019 46.8457C24.6793 47.0231 24.9493 47.0463 25.1653 46.892C25.3041 46.7917 25.3118 46.6452 25.3504 44.9019C25.3967 42.7576 25.4121 42.6804 26.0292 42.287C27.4948 41.3537 31.4287 41.2766 33.1797 42.1328C34.0899 42.5801 34.1361 42.7267 34.1439 44.9713C34.1439 46.5835 34.1516 46.6992 34.2981 46.8457C34.383 46.9306 34.5372 47 34.6452 47C34.7532 47 34.9075 46.9306 34.9923 46.8457C35.1389 46.6992 35.1466 46.5912 35.1466 44.7399C35.1466 42.9504 35.1312 42.7653 34.9846 42.449C34.545 41.4694 33.4342 40.8755 31.421 40.5592L31.1279 40.5129L31.5135 40.0887C32.2155 39.3173 32.4854 38.5074 32.4314 37.2887C32.3929 36.4247 32.2386 36.0082 31.7681 35.4914C31.1433 34.8126 30.1328 34.5272 29.0838 34.7355ZM30.6265 35.9311C31.6447 36.417 31.6678 38.4457 30.6728 39.4407C29.7163 40.3972 28.3741 39.6104 28.1196 37.9443C27.9884 37.1267 28.2353 36.3245 28.6981 36.0236C29.1609 35.7151 30.0788 35.6765 30.6265 35.9311Z" fill="black"/>
<path d="M29.0838 34.7355C28.297 34.8975 27.5873 35.4528 27.2557 36.1856C27.0628 36.6253 26.9857 37.8209 27.1168 38.4303C27.2479 39.0319 27.5488 39.6181 27.9807 40.0887L28.3587 40.5052L27.8419 40.59C26.0215 40.8986 24.9647 41.4848 24.5328 42.4104C24.3554 42.7807 24.3477 42.8655 24.3477 44.7399C24.3477 46.5912 24.3554 46.6992 24.5019 46.8457C24.6793 47.0231 24.9493 47.0463 25.1653 46.892C25.3041 46.7917 25.3118 46.6452 25.3504 44.9019C25.3967 42.7576 25.4121 42.6804 26.0292 42.287C27.4948 41.3537 31.4287 41.2766 33.1797 42.1328C34.0899 42.5801 34.1361 42.7267 34.1439 44.9713C34.1439 46.5835 34.1516 46.6992 34.2981 46.8457C34.383 46.9306 34.5372 47 34.6452 47C34.7532 47 34.9075 46.9306 34.9923 46.8457C35.1389 46.6992 35.1466 46.5912 35.1466 44.7399C35.1466 42.9504 35.1312 42.7653 34.9846 42.449C34.545 41.4694 33.4342 40.8755 31.421 40.5592L31.1279 40.5129L31.5135 40.0887C32.2155 39.3173 32.4854 38.5074 32.4314 37.2887C32.3929 36.4247 32.2386 36.0082 31.7681 35.4914C31.1433 34.8126 30.1328 34.5272 29.0838 34.7355ZM30.6265 35.9311C31.6447 36.417 31.6678 38.4457 30.6728 39.4407C29.7163 40.3972 28.3741 39.6104 28.1196 37.9443C27.9884 37.1267 28.2353 36.3245 28.6981 36.0236C29.1609 35.7151 30.0788 35.6765 30.6265 35.9311Z" fill="url(#paint0_linear_222_724)"/>
</g>
<g id="Vector_8">
<path d="M43.3994 34.7355C42.1652 34.9978 41.4324 35.9002 41.3399 37.281C41.2704 38.33 41.6793 39.5025 42.3503 40.1735L42.6897 40.5052L41.9415 40.6364C40.2137 40.9449 39.3343 41.4463 38.8253 42.4028C38.6633 42.7036 38.6556 42.8347 38.6324 44.6628L38.6016 46.6066L38.8021 46.8072C39.0489 47.054 39.2649 47.054 39.504 46.8072L39.6969 46.6221V44.8171C39.6969 43.0661 39.7046 43.0044 39.8743 42.7499C40.422 41.9245 42.2501 41.454 44.5178 41.5466C46.184 41.616 47.4644 41.9477 47.9735 42.4336C48.3978 42.8347 48.4132 42.9118 48.4132 44.8402V46.6221L48.606 46.8072C48.8451 47.054 49.0611 47.054 49.308 46.8072L49.5008 46.6143L49.4777 44.6628C49.4545 42.719 49.4545 42.719 49.2462 42.3256C48.8066 41.4848 47.9504 40.9989 46.4154 40.6904L45.4358 40.4975L45.7983 40.1273C46.4771 39.433 46.8396 38.384 46.7702 37.3195C46.7471 36.9801 46.6931 36.5713 46.6468 36.4171C46.4308 35.7228 45.7134 35.0055 45.0347 34.8126C44.6027 34.6969 43.7928 34.6584 43.3994 34.7355ZM44.6721 35.8231C45.0809 35.9388 45.5206 36.3862 45.6363 36.8182C45.7597 37.281 45.6903 38.2297 45.4975 38.6771C45.3123 39.1014 44.9267 39.5565 44.6104 39.7184C44.325 39.8727 43.7928 39.8727 43.5074 39.7262C42.8671 39.3868 42.3966 38.4534 42.3966 37.5047C42.3966 36.795 42.682 36.1934 43.1294 35.9465C43.5074 35.746 44.1785 35.692 44.6721 35.8231Z" fill="black"/>
<path d="M43.3994 34.7355C42.1652 34.9978 41.4324 35.9002 41.3399 37.281C41.2704 38.33 41.6793 39.5025 42.3503 40.1735L42.6897 40.5052L41.9415 40.6364C40.2137 40.9449 39.3343 41.4463 38.8253 42.4028C38.6633 42.7036 38.6556 42.8347 38.6324 44.6628L38.6016 46.6066L38.8021 46.8072C39.0489 47.054 39.2649 47.054 39.504 46.8072L39.6969 46.6221V44.8171C39.6969 43.0661 39.7046 43.0044 39.8743 42.7499C40.422 41.9245 42.2501 41.454 44.5178 41.5466C46.184 41.616 47.4644 41.9477 47.9735 42.4336C48.3978 42.8347 48.4132 42.9118 48.4132 44.8402V46.6221L48.606 46.8072C48.8451 47.054 49.0611 47.054 49.308 46.8072L49.5008 46.6143L49.4777 44.6628C49.4545 42.719 49.4545 42.719 49.2462 42.3256C48.8066 41.4848 47.9504 40.9989 46.4154 40.6904L45.4358 40.4975L45.7983 40.1273C46.4771 39.433 46.8396 38.384 46.7702 37.3195C46.7471 36.9801 46.6931 36.5713 46.6468 36.4171C46.4308 35.7228 45.7134 35.0055 45.0347 34.8126C44.6027 34.6969 43.7928 34.6584 43.3994 34.7355ZM44.6721 35.8231C45.0809 35.9388 45.5206 36.3862 45.6363 36.8182C45.7597 37.281 45.6903 38.2297 45.4975 38.6771C45.3123 39.1014 44.9267 39.5565 44.6104 39.7184C44.325 39.8727 43.7928 39.8727 43.5074 39.7262C42.8671 39.3868 42.3966 38.4534 42.3966 37.5047C42.3966 36.795 42.682 36.1934 43.1294 35.9465C43.5074 35.746 44.1785 35.692 44.6721 35.8231Z" fill="url(#paint0_linear_222_724)"/>
</g>
</g>
</g>
<defs>
<linearGradient id="paint0_linear_222_724" x1="15" y1="30.0014" x2="45" y2="30.0014" gradientUnits="userSpaceOnUse">
<stop stop-color="#0091D7"/>
<stop offset="1" stop-color="#FE0FD4"/>
</linearGradient>
</defs>
</svg>
