<svg width="60" height="60" viewBox="0 0 60 60" fill="none" xmlns="http://www.w3.org/2000/svg">
<rect width="60" height="60" rx="7" fill="white"/>
<path d="M28.9469 16.0162C28.8429 16.0272 28.5198 16.0655 28.2351 16.0983C23.9039 16.5909 19.9013 19.3057 17.7002 23.241C16.9007 24.675 16.3203 26.4593 16.0739 28.2436C15.9754 28.9278 15.9754 31.0624 16.0739 31.7466C16.6489 35.9172 18.8719 39.4585 22.3489 41.7409C26.9483 44.7621 33.059 44.7512 37.664 41.719C44.596 37.1487 46.0908 27.647 40.9 21.2104C38.6605 18.4354 35.5668 16.673 31.9585 16.1202C31.4109 16.0381 29.374 15.967 28.9469 16.0162ZM31.9311 17.8936C35.3697 18.4737 38.2718 20.3456 40.2046 23.241C41.1847 24.7024 41.8254 26.3772 42.1265 28.2163C42.258 29.0537 42.258 30.9365 42.1265 31.7739C41.5352 35.4301 39.5311 38.4623 36.421 40.4218C35.0905 41.2592 33.4807 41.8503 31.7668 42.1295C30.9236 42.2608 29.0455 42.2608 28.2077 42.124C24.6048 41.5384 21.6535 39.6336 19.6823 36.6178C18.7624 35.2112 18.1437 33.5692 17.848 31.7739C17.7166 30.9365 17.7166 29.0537 17.848 28.2163C18.2915 25.496 19.4414 23.2246 21.3304 21.3472C23.4221 19.2619 26.0504 18.0359 29.0017 17.7677C29.593 17.7129 31.2904 17.7896 31.9311 17.8936Z" fill="black"/>
<path d="M28.9469 16.0162C28.8429 16.0272 28.5198 16.0655 28.2351 16.0983C23.9039 16.5909 19.9013 19.3057 17.7002 23.241C16.9007 24.675 16.3203 26.4593 16.0739 28.2436C15.9754 28.9278 15.9754 31.0624 16.0739 31.7466C16.6489 35.9172 18.8719 39.4585 22.3489 41.7409C26.9483 44.7621 33.059 44.7512 37.664 41.719C44.596 37.1487 46.0908 27.647 40.9 21.2104C38.6605 18.4354 35.5668 16.673 31.9585 16.1202C31.4109 16.0381 29.374 15.967 28.9469 16.0162ZM31.9311 17.8936C35.3697 18.4737 38.2718 20.3456 40.2046 23.241C41.1847 24.7024 41.8254 26.3772 42.1265 28.2163C42.258 29.0537 42.258 30.9365 42.1265 31.7739C41.5352 35.4301 39.5311 38.4623 36.421 40.4218C35.0905 41.2592 33.4807 41.8503 31.7668 42.1295C30.9236 42.2608 29.0455 42.2608 28.2077 42.124C24.6048 41.5384 21.6535 39.6336 19.6823 36.6178C18.7624 35.2112 18.1437 33.5692 17.848 31.7739C17.7166 30.9365 17.7166 29.0537 17.848 28.2163C18.2915 25.496 19.4414 23.2246 21.3304 21.3472C23.4221 19.2619 26.0504 18.0359 29.0017 17.7677C29.593 17.7129 31.2904 17.7896 31.9311 17.8936Z" fill="url(#paint0_linear_222_724)"/>
<path d="M29.6314 21.3144C29.2262 21.5005 29.1112 21.7686 29.1112 22.524V23.0877L28.7444 23.2027C28.257 23.3504 27.7588 23.6515 27.3043 24.0674C25.9737 25.2989 25.6671 27.335 26.576 28.9004C26.691 29.0974 26.9812 29.4532 27.2222 29.694C27.9833 30.4548 28.7006 30.7723 29.8887 30.8653C30.4856 30.9146 30.6006 30.9419 30.951 31.1116C31.4219 31.347 31.7395 31.6754 31.9749 32.1734C32.1337 32.5073 32.1501 32.5894 32.1501 33.0601C32.1501 33.5308 32.1337 33.6129 31.9749 33.9468C31.734 34.4558 31.4274 34.7733 30.9291 35.0196C30.5349 35.2111 30.4856 35.2221 29.9928 35.2221C29.5164 35.2221 29.4343 35.2057 29.1112 35.0524C28.3337 34.6802 27.8956 34.0563 27.8026 33.1751C27.7478 32.6934 27.6711 32.5347 27.3919 32.3267C27.2824 32.2391 27.1619 32.2118 26.921 32.2118C26.576 32.2118 26.4008 32.2993 26.1928 32.5785C25.8697 33.0109 26.127 34.3409 26.7075 35.2276C27.151 35.9117 27.9942 36.5631 28.7389 36.7875L29.1003 36.8969L29.1222 37.5483C29.1386 38.2488 29.1824 38.3638 29.5164 38.6101C29.73 38.7688 30.2447 38.7688 30.4582 38.6101C30.7922 38.3638 30.836 38.2488 30.8524 37.5592L30.8743 36.9188L31.3014 36.7656C32.955 36.1799 34.0337 34.5325 33.9133 32.781C33.8421 31.8122 33.4697 31.0131 32.7524 30.2961C31.9913 29.5353 31.2741 29.2178 30.0859 29.1248C29.489 29.0755 29.374 29.0482 29.0236 28.8785C28.5527 28.6431 28.2351 28.3147 27.9997 27.8167C27.8409 27.4828 27.8245 27.4007 27.8245 26.9245C27.8245 26.4319 27.8354 26.3827 28.0271 25.9886C28.2735 25.4905 28.591 25.184 29.1003 24.9432C29.4343 24.7844 29.5164 24.768 29.9873 24.768C30.4582 24.768 30.5403 24.7844 30.8743 24.9432C31.6354 25.3044 32.079 25.9393 32.172 26.8151C32.2268 27.2967 32.3035 27.4554 32.5827 27.6634C32.7963 27.8221 33.311 27.8221 33.5245 27.6634C33.9023 27.3843 33.9899 27.0504 33.8749 26.3389C33.6395 24.883 32.5937 23.635 31.2357 23.1972L30.8743 23.0822L30.8524 22.4364C30.836 21.7413 30.7922 21.6263 30.4691 21.3855C30.283 21.2487 29.8504 21.2104 29.6314 21.3144Z" fill="black"/>
<path d="M29.6314 21.3144C29.2262 21.5005 29.1112 21.7686 29.1112 22.524V23.0877L28.7444 23.2027C28.257 23.3504 27.7588 23.6515 27.3043 24.0674C25.9737 25.2989 25.6671 27.335 26.576 28.9004C26.691 29.0974 26.9812 29.4532 27.2222 29.694C27.9833 30.4548 28.7006 30.7723 29.8887 30.8653C30.4856 30.9146 30.6006 30.9419 30.951 31.1116C31.4219 31.347 31.7395 31.6754 31.9749 32.1734C32.1337 32.5073 32.1501 32.5894 32.1501 33.0601C32.1501 33.5308 32.1337 33.6129 31.9749 33.9468C31.734 34.4558 31.4274 34.7733 30.9291 35.0196C30.5349 35.2111 30.4856 35.2221 29.9928 35.2221C29.5164 35.2221 29.4343 35.2057 29.1112 35.0524C28.3337 34.6802 27.8956 34.0563 27.8026 33.1751C27.7478 32.6934 27.6711 32.5347 27.3919 32.3267C27.2824 32.2391 27.1619 32.2118 26.921 32.2118C26.576 32.2118 26.4008 32.2993 26.1928 32.5785C25.8697 33.0109 26.127 34.3409 26.7075 35.2276C27.151 35.9117 27.9942 36.5631 28.7389 36.7875L29.1003 36.8969L29.1222 37.5483C29.1386 38.2488 29.1824 38.3638 29.5164 38.6101C29.73 38.7688 30.2447 38.7688 30.4582 38.6101C30.7922 38.3638 30.836 38.2488 30.8524 37.5592L30.8743 36.9188L31.3014 36.7656C32.955 36.1799 34.0337 34.5325 33.9133 32.781C33.8421 31.8122 33.4697 31.0131 32.7524 30.2961C31.9913 29.5353 31.2741 29.2178 30.0859 29.1248C29.489 29.0755 29.374 29.0482 29.0236 28.8785C28.5527 28.6431 28.2351 28.3147 27.9997 27.8167C27.8409 27.4828 27.8245 27.4007 27.8245 26.9245C27.8245 26.4319 27.8354 26.3827 28.0271 25.9886C28.2735 25.4905 28.591 25.184 29.1003 24.9432C29.4343 24.7844 29.5164 24.768 29.9873 24.768C30.4582 24.768 30.5403 24.7844 30.8743 24.9432C31.6354 25.3044 32.079 25.9393 32.172 26.8151C32.2268 27.2967 32.3035 27.4554 32.5827 27.6634C32.7963 27.8221 33.311 27.8221 33.5245 27.6634C33.9023 27.3843 33.9899 27.0504 33.8749 26.3389C33.6395 24.883 32.5937 23.635 31.2357 23.1972L30.8743 23.0822L30.8524 22.4364C30.836 21.7413 30.7922 21.6263 30.4691 21.3855C30.283 21.2487 29.8504 21.2104 29.6314 21.3144Z" fill="url(#paint0_linear_222_724)"/>
<defs>
<linearGradient id="paint0_linear_222_724" x1="15" y1="30.0014" x2="45" y2="30.0014" gradientUnits="userSpaceOnUse">
<stop stop-color="#0091D7"/>
<stop offset="1" stop-color="#FE0FD4"/>
</linearGradient>
</defs>
</svg>
