<svg width="60" height="60" viewBox="0 0 60 60" fill="none" xmlns="http://www.w3.org/2000/svg">
<g id="Group 771001">
<rect id="Rectangle 56" width="60" height="60" rx="7" fill="url(#paint0_linear_696_1782)"/>
<g id="Group">
<path id="Vector" d="M26.2919 14.0582C24.3081 14.3974 22.6872 15.7794 22.0552 17.6827C21.7923 18.4804 21.7235 19.2908 21.7548 21.2192C21.7798 22.7394 21.7923 22.8461 21.9425 23.2733C22.0301 23.5245 22.2492 23.9454 22.4306 24.2092C22.9188 24.9253 22.9876 25.1766 23.0565 26.5146C23.119 27.6955 23.2066 28.242 23.4757 29.1026C23.8325 30.2458 24.3394 31.1001 25.1216 31.8602L25.6285 32.3564L25.6097 32.9281L25.591 33.4997L24.6835 33.8263C20.8223 35.2083 16.7921 36.697 16.5293 36.8415C15.8284 37.2184 15.1025 38.1292 14.8334 38.9646C14.6581 39.5237 13.9697 43.8894 14.001 44.2537C14.0699 44.9196 14.533 45.5729 15.1588 45.8618L15.4529 46H30.0029H44.5529L44.847 45.8618C45.4603 45.5729 45.9422 44.907 45.9985 44.26C46.0361 43.8957 45.3539 39.5363 45.1724 38.9646C44.8971 38.1103 44.1649 37.2058 43.4264 36.8226C43.0697 36.6342 42.1999 36.3138 36.8555 34.3854C35.6539 33.9457 34.6026 33.5625 34.5275 33.5311C34.3898 33.4746 34.3835 33.4306 34.3835 32.8778V32.2811L34.903 31.7597C36.0044 30.6478 36.5676 29.3538 36.9181 27.1239C37.1058 25.8864 37.2935 25.2959 37.813 24.2406L38.2323 23.3926L38.251 21.1124C38.2761 18.5558 38.2635 18.493 37.838 17.6764C37.5626 17.1488 37.0995 16.6588 36.6302 16.3887L36.2797 16.194L36.2735 15.8233C36.261 14.9879 35.7728 14.3974 34.8654 14.1085C34.5275 14.0017 34.2083 13.9954 30.5474 14.0017C28.3695 14.008 26.4546 14.0331 26.2919 14.0582ZM34.5901 15.1638C34.928 15.2768 35.1971 15.5658 35.1971 15.8045C35.1971 15.8924 35.1658 16.1249 35.122 16.3259C35.0281 16.797 35.1157 16.9415 35.6289 17.1299C36.3361 17.3875 36.8304 17.89 37.0683 18.5872C37.1934 18.9578 37.1997 19.1149 37.1997 20.88C37.1997 22.1803 37.1746 22.8901 37.1246 23.1162C37.0432 23.4492 37.0432 23.4492 37.0057 22.6012C36.9806 21.9542 36.9431 21.6652 36.8367 21.3763C36.5739 20.6539 36.0294 19.9943 35.3786 19.6048C35.1908 19.4918 34.346 19.1526 33.5074 18.8511L31.9742 18.3046H31.3484C30.7351 18.3046 30.7038 18.3108 29.7526 18.6752L28.7826 19.0458L27.1868 19.0835C25.7286 19.1149 25.5597 19.1337 25.2343 19.2656C23.8763 19.7996 23.0064 21.0559 22.9876 22.5069C22.9814 22.821 22.9688 22.9027 22.9313 22.7896C22.9063 22.7017 22.8812 21.772 22.875 20.7167C22.8687 18.537 22.9 18.3234 23.313 17.4566C23.5195 17.0357 23.676 16.8158 24.1141 16.3824C24.5709 15.9113 24.7399 15.7919 25.2468 15.547C25.7662 15.2957 26.0728 15.2078 26.7487 15.101C26.8363 15.0884 28.5698 15.0758 30.6037 15.0696C33.8328 15.0633 34.3335 15.0758 34.5901 15.1638ZM33.0506 19.875C33.8015 20.1388 34.5525 20.4215 34.7152 20.5094C35.0844 20.6978 35.4724 21.0873 35.6852 21.5019L35.8542 21.816L35.873 24.2344C35.8917 26.8601 35.8542 27.3814 35.535 28.4681C35.147 29.825 34.4274 30.9054 33.5074 31.5147C33.351 31.6215 32.988 31.9042 32.6939 32.1491C31.8428 32.859 31.2232 33.173 30.4159 33.2798C29.7401 33.3803 29.2144 33.2798 28.526 32.9406C27.8439 32.6014 25.9852 31.2572 25.616 30.8426C25.0528 30.1956 24.5709 29.1654 24.2893 27.9719C24.1641 27.438 24.1516 27.2495 24.1516 24.6427V21.8788L24.3206 21.5207C24.5271 21.081 24.9839 20.6099 25.4032 20.4026C25.7036 20.2519 25.785 20.2456 27.2806 20.2079C28.9891 20.1702 28.8827 20.189 30.2219 19.6865C31.2983 19.2782 31.3672 19.2845 33.0506 19.875ZM33.3197 33.3301V33.5688L31.6613 34.6806L30.0092 35.7925L28.3445 34.6869C26.7299 33.6002 26.6861 33.5688 26.6861 33.3615C26.6861 33.2484 26.6986 33.1542 26.7174 33.1542C26.7299 33.1542 26.9615 33.2987 27.2306 33.4746C27.8314 33.864 28.5135 34.1969 28.9828 34.3163C29.4522 34.4419 30.3909 34.4356 30.9604 34.31C31.5048 34.1907 32.5437 33.6944 32.9755 33.3489C33.1507 33.2107 33.2946 33.0977 33.3072 33.0977C33.3134 33.0914 33.3197 33.1982 33.3197 33.3301ZM27.6561 35.56C28.4822 36.1128 29.1706 36.5714 29.1831 36.5839C29.2081 36.6091 27.2994 39.2473 27.2494 39.2473C27.2055 39.2473 24.9026 35.0449 24.9026 34.9633C24.9026 34.8816 26.004 34.4796 26.0916 34.5236C26.1292 34.5424 26.8301 35.0073 27.6561 35.56ZM35.1032 34.9633C35.1032 35.0701 32.794 39.2473 32.7439 39.2348C32.6939 39.2159 30.879 36.7472 30.8415 36.6467C30.829 36.6091 31.5236 36.1065 32.3872 35.5349L33.958 34.4859L34.5275 34.6932C34.8466 34.8062 35.1032 34.9256 35.1032 34.9633ZM22.3368 36.8603C22.0051 37.5324 21.7423 38.1418 21.7423 38.2423C21.7423 38.3428 21.8111 38.4998 21.8925 38.6003C22.0426 38.7762 22.0552 38.7762 22.8312 38.795L23.6134 38.8202L23.4319 39.1908C23.069 39.9069 22.8875 39.6745 25.8914 42.4321C27.3432 43.7638 28.5448 44.8819 28.551 44.9133C28.5823 44.9887 16.0036 44.9761 15.7408 44.9007C15.4654 44.8253 15.1963 44.5615 15.1087 44.304C15.0023 43.9899 15.7846 39.3981 16.0161 38.9332C16.2226 38.5249 16.6732 38.035 17.0425 37.8151C17.2803 37.6769 22.8687 35.604 22.9188 35.6417C22.9313 35.648 22.6685 36.1945 22.3368 36.8603ZM40.0158 36.6844C41.4426 37.1995 42.7443 37.6958 42.9133 37.79C43.076 37.8779 43.3513 38.0978 43.5266 38.2862C44.0585 38.8516 44.1211 39.0589 44.5654 41.6971C44.7907 43.0414 44.9409 44.1281 44.9221 44.2286C44.8658 44.4861 44.5466 44.8253 44.2838 44.9007C44.0022 44.9761 31.4235 44.9887 31.4548 44.9133C31.4673 44.8819 32.4874 43.9334 33.7264 42.7964C36.7616 40.0199 36.7616 40.0199 36.7616 39.7687C36.7616 39.6493 36.6803 39.3918 36.5739 39.1908L36.3924 38.8202L37.1746 38.795C37.9506 38.7762 37.9632 38.7762 38.1133 38.6003C38.1947 38.4998 38.2635 38.3428 38.2635 38.2423C38.2635 38.1418 38.0007 37.5387 37.669 36.8666C37.3436 36.2008 37.0745 35.648 37.0745 35.6354C37.0745 35.6166 37.1496 35.6354 37.2497 35.6731C37.3436 35.7108 38.589 36.1631 40.0158 36.6844ZM25.8413 38.9961C26.7925 40.7423 27.6624 42.3253 27.7625 42.5137L27.9565 42.8592L27.6499 42.5703C27.4809 42.4132 26.6861 41.6846 25.8914 40.9496L24.4332 39.6179L24.7461 38.9961C24.9214 38.6506 25.059 38.3114 25.059 38.236C25.059 38.1669 24.9777 38.0224 24.8775 37.9219C24.6961 37.7397 24.6898 37.7397 23.9388 37.7397C23.482 37.7397 23.1816 37.7146 23.1816 37.6769C23.1816 37.6141 24.0765 35.7862 24.0953 35.8113C24.1015 35.8176 24.8838 37.2498 25.8413 38.9961ZM36.8179 37.6581C36.8242 37.7209 36.6302 37.7397 36.067 37.7397C35.316 37.7397 35.3097 37.7397 35.1283 37.9219C35.0281 38.0224 34.9468 38.1669 34.9468 38.236C34.9468 38.3114 35.0844 38.6506 35.2597 38.9961L35.5726 39.6179L34.0832 40.981C33.2696 41.7348 32.4748 42.4635 32.3246 42.6017L32.0555 42.8592L32.3246 42.3567C32.4748 42.074 33.3447 40.4848 34.2584 38.8202L35.9168 35.7925L36.3674 36.6907C36.6177 37.1807 36.8179 37.6204 36.8179 37.6581ZM30.5912 38.2234C30.6162 38.2737 30.5286 38.4558 30.3784 38.6757C30.2344 38.8955 30.1281 39.128 30.1281 39.2285C30.1281 39.3227 30.2595 40.2272 30.4159 41.2323L30.7101 43.0602L30.3721 43.6695C30.1844 44.0025 30.0217 44.2726 30.0029 44.2726C29.9841 44.2726 29.8214 44.0025 29.6399 43.6758L29.3083 43.0791L29.5899 41.2825C29.7463 40.2901 29.8777 39.3792 29.8777 39.2536C29.8777 39.0777 29.8089 38.927 29.6212 38.6631L29.3708 38.3051L29.5085 38.0978C29.5899 37.991 29.7338 37.79 29.8339 37.6581L30.0154 37.4194L30.2783 37.7837C30.4222 37.9847 30.5599 38.1857 30.5912 38.2234ZM28.7638 39.3227C28.7951 39.4232 28.4884 41.4459 28.4446 41.4459C28.3946 41.4459 27.8752 40.4722 27.8752 40.3843C27.8752 40.3026 28.6386 39.2473 28.695 39.2473C28.72 39.2473 28.7513 39.285 28.7638 39.3227ZM31.7426 39.7812C31.9554 40.0702 32.1306 40.3466 32.1306 40.3906C32.1244 40.5413 31.5737 41.4773 31.5424 41.383C31.4986 41.226 31.2545 39.5928 31.2545 39.4106C31.2545 39.3227 31.2795 39.2473 31.3046 39.2473C31.3359 39.2473 31.5299 39.486 31.7426 39.7812Z" fill="white"/>
</g>
</g>
<defs>
<linearGradient id="paint0_linear_696_1782" x1="-50" y1="-20" x2="92" y2="80" gradientUnits="userSpaceOnUse">
<stop stop-color="#FA065B"/>
<stop offset="0.494792" stop-color="#FE0FD4"/>
<stop offset="1" stop-color="#FB05A8"/>
</linearGradient>
</defs>
</svg>
