<svg width="60" height="60" viewBox="0 0 60 60" fill="none" xmlns="http://www.w3.org/2000/svg">
<g id="Group 770984">
<g id="Group 94">
<rect id="Rectangle 24" width="60" height="60" rx="7" fill="url(#paint0_linear_676_1650)"/>
<g id="Group">
<path id="Vector" d="M32.0277 13.2512C30.8411 13.7706 29.921 14.4088 28.9502 15.3724C27.1735 17.1431 26.3422 19.064 26.1963 21.7295C26.1392 22.7556 26.0821 22.9934 25.7838 23.3375C25.4221 23.7568 24.6607 23.9257 24.1086 23.7005C23.969 23.6379 23.4614 23.1936 22.8142 22.5617C22.2304 21.986 21.7418 21.5293 21.7291 21.548C21.5705 21.7295 19.2989 24.883 19.045 25.271C17.2239 28.0178 16.5767 31.5217 17.2747 34.8317C18.2011 39.2241 21.469 42.872 25.7902 44.3111C31.9832 46.3822 38.6966 43.6541 41.6409 37.8663C42.7957 35.6138 43.2716 32.7168 42.8465 30.5519C42.5737 29.1753 41.8376 27.4797 40.9175 26.1282C40.4099 25.3773 40.1941 25.1145 38.7284 23.4439C35.9237 20.2341 33.6838 16.5299 32.8843 13.7768C32.7637 13.3576 32.6559 13.0072 32.6495 13.0009C32.6368 12.9884 32.3576 13.1011 32.0277 13.2512ZM32.2497 17.262C32.8843 18.5509 33.3602 19.3894 34.2168 20.6658C35.3082 22.3051 36.0316 23.2249 38.3603 25.9092C39.6231 27.3733 40.4924 28.9564 40.8985 30.5456C41.0444 31.1275 41.0635 31.334 41.0635 32.2413C41.0635 33.3425 41 33.8994 40.7398 34.9005C39.788 38.6672 36.6471 41.7895 32.8526 42.7531C27.973 43.992 23.0046 41.9897 20.422 37.735C19.0387 35.4574 18.5628 32.4791 19.1529 29.8323C19.4956 28.3119 20.1047 27.0229 21.2342 25.4399L21.9576 24.4263L22.4017 24.8017C23.1378 25.4274 23.766 25.6714 24.667 25.6714C25.6062 25.6714 26.2788 25.4211 26.945 24.8267C27.7509 24.1009 28.011 23.4439 28.0935 21.9172C28.1951 20.1027 28.506 19.0765 29.3499 17.8189C29.6989 17.2995 30.4223 16.5362 31.0441 16.0293L31.4883 15.6664L31.6089 15.9292C31.6723 16.0731 31.9642 16.6738 32.2497 17.262Z" fill="white"/>
<path id="Vector_2" d="M25.9546 28.9191C25.3581 29.1381 24.9583 29.501 24.6855 30.0829C24.5268 30.4208 24.5078 30.5272 24.5078 31.1466C24.5078 31.9538 24.6093 32.2979 24.971 32.7672C25.7388 33.7683 27.5346 33.8559 28.461 32.9424C29.1843 32.2291 29.3239 30.7775 28.7656 29.8452C28.5625 29.4885 28.1564 29.1381 27.7884 28.9754C27.3442 28.7877 26.3987 28.7565 25.9546 28.9191ZM27.0713 30.2331C27.414 30.571 27.4203 31.7536 27.0904 32.1352C26.9381 32.3042 26.5827 32.2541 26.4241 32.0414C26.1386 31.6597 26.2338 30.3645 26.5574 30.1768C26.7287 30.0829 26.9381 30.1017 27.0713 30.2331Z" fill="white"/>
<path id="Vector_3" d="M28.9811 33.1609C27.3693 35.4885 26.0368 37.4282 26.0178 37.4782C25.9924 37.5408 26.1828 37.5596 27.0013 37.5596H28.0229L28.1752 37.3531C28.3973 37.0653 33.9939 28.9812 33.9939 28.9499C33.9939 28.9374 33.5244 28.9249 32.9533 28.9249H31.9126L28.9811 33.1609Z" fill="white"/>
<path id="Vector_4" d="M32.3662 32.9859C31.4842 33.305 30.9638 34.0245 30.9067 35.0194C30.8116 36.446 31.5413 37.4409 32.804 37.6161C33.9842 37.7788 34.9868 37.2344 35.3675 36.227C35.4627 35.9767 35.4881 35.7452 35.4881 35.2134C35.4881 34.5877 35.469 34.4876 35.3041 34.1372C35.0947 33.6804 34.6505 33.2362 34.2063 33.0422C33.7621 32.8482 32.8167 32.8232 32.3662 32.9859ZM33.4258 34.2435C33.6416 34.3562 33.7621 34.8129 33.7304 35.4011C33.6987 36.0456 33.5718 36.2646 33.2228 36.2958C32.8611 36.3271 32.6644 35.9705 32.6644 35.2822C32.6644 34.4375 32.9817 34.0058 33.4258 34.2435Z" fill="white"/>
</g>
</g>
</g>
<defs>
<linearGradient id="paint0_linear_676_1650" x1="-50" y1="-20" x2="92" y2="80" gradientUnits="userSpaceOnUse">
<stop stop-color="#FA065B"/>
<stop offset="0.494792" stop-color="#FE0FD4"/>
<stop offset="1" stop-color="#FB05A8"/>
</linearGradient>
</defs>
</svg>
