<svg width="60" height="60" viewBox="0 0 60 60" fill="none" xmlns="http://www.w3.org/2000/svg">
<g id="Group 771000">
<rect id="Rectangle 25" width="60" height="60" rx="7" fill="url(#paint0_linear_696_1781)"/>
<g id="Group">
<path id="Vector" d="M24.0375 14.0372C23.0063 14.2051 21.7313 14.7604 20.9313 15.3868C19.75 16.3166 18.8563 17.7113 18.4563 19.2352C18.2938 19.868 18.2875 19.9197 18.2875 21.8504L18.2813 23.8198L18.4938 24.2266C18.6125 24.4526 18.7938 24.7044 18.8938 24.7948C19.1875 25.0466 19.6375 25.2597 19.9938 25.3114C20.275 25.3501 20.3188 25.3759 20.35 25.5245C20.425 25.8925 20.7125 26.6803 20.8813 26.9838C21.15 27.4745 21.5938 28.0234 21.9375 28.2881C22.1875 28.4883 22.2438 28.5722 22.2438 28.7337L22.25 28.9403L20.925 28.9726C19.8313 28.9919 19.5125 29.0242 19.125 29.134C17.1438 29.7022 15.7125 31.1874 15.1688 33.2472C15.0375 33.7508 15.0313 33.8671 15.0313 37.0956V40.421L15.2563 40.886L15.475 41.3509H14.8938C14.3563 41.3509 14.2938 41.3638 14.1563 41.5123L14 41.6673V43.6754V45.6836L14.1563 45.8386L14.3063 46H30H45.6938L45.8438 45.8386L46 45.6836V43.6754V41.6673L45.8438 41.5123C45.7125 41.3702 45.6375 41.3509 45.2188 41.3509C44.8563 41.3509 44.75 41.3315 44.775 41.2669C45.0063 40.6987 45.0063 40.6922 44.9875 35.5007L44.9688 30.4706L44.8125 30.1478C44.6188 29.7345 44.2438 29.3471 43.8438 29.1469L43.5313 28.9855H37.3438C33.9375 28.9919 30.9875 28.9984 30.7813 29.0113C30.575 29.0178 29.8063 29.0113 29.0813 28.9855L27.75 28.9403L27.7563 28.7337C27.7563 28.5722 27.8125 28.4883 28.0625 28.2881C28.6938 27.7974 29.2563 26.8934 29.5375 25.9442L29.7125 25.3501L30.0188 25.3114C30.3625 25.2597 30.8188 25.0466 31.1063 24.7948C31.2063 24.7044 31.3875 24.4526 31.5063 24.2266L31.7188 23.8198L31.7375 22.2055C31.75 21.2692 31.7313 20.3717 31.6875 20.0617C31.425 18.0342 30.325 16.2197 28.675 15.1091C27.6 14.3859 26.5313 14.0437 25.2188 14.005C24.775 13.992 24.2375 14.005 24.0375 14.0372ZM26.0938 15.1285C27.675 15.4643 28.9375 16.3424 29.8 17.7113C30.3938 18.6476 30.75 19.8422 30.75 20.927C30.75 21.224 30.7375 21.4629 30.725 21.4629C30.7125 21.4629 30.5938 21.4177 30.4688 21.3596C30.3375 21.308 30.0625 21.2369 29.85 21.2176L29.475 21.1724L28.5813 19.9778C28.0875 19.3192 27.6375 18.7445 27.5813 18.6993C27.3375 18.5185 27.1438 18.6024 26.6063 19.1255C25.8 19.9068 24.9438 20.4492 23.975 20.7849C23.1063 21.0884 22.6563 21.153 21.1875 21.1982C20.075 21.2369 19.7313 21.2692 19.5375 21.3532C19.4063 21.4113 19.2875 21.4629 19.275 21.4629C19.2125 21.4629 19.2625 20.4556 19.3438 19.9584C19.6188 18.3312 20.5313 16.8977 21.8688 15.9873C23.1188 15.1349 24.6688 14.825 26.0938 15.1285ZM28.2125 21.1724L28.75 21.8826V23.4001C28.75 24.4849 28.7188 25.0466 28.6563 25.3695C28.3 27.1129 26.725 28.4366 25 28.4366C23.2813 28.4366 21.7 27.1065 21.3438 25.3695C21.2813 25.0595 21.25 24.5042 21.25 23.5873V22.2572L21.9563 22.2184C23.15 22.1538 24.125 21.902 25.1688 21.3919C25.7 21.1336 26.6 20.5266 27.0313 20.1521L27.275 19.9261L27.475 20.1973C27.5875 20.3394 27.9188 20.7785 28.2125 21.1724ZM20.25 23.2774V24.317L20.05 24.2782C19.9438 24.2589 19.7563 24.162 19.6375 24.0716C19.05 23.6002 19.1625 22.6446 19.8438 22.3282C20.2563 22.1409 20.25 22.128 20.25 23.2774ZM30.3063 22.4186C30.6125 22.651 30.7188 22.8706 30.7188 23.2709C30.7188 23.555 30.6875 23.6971 30.5875 23.8262C30.4125 24.0781 30.1938 24.233 29.9563 24.2782L29.75 24.317V23.2709V22.2184L29.9563 22.2636C30.0625 22.283 30.225 22.354 30.3063 22.4186ZM23.8313 29.3212C24.5625 29.5279 25.9375 29.4568 26.6563 29.1727C26.7313 29.1404 26.75 29.205 26.75 29.5472C26.75 30.1994 26.6063 30.5933 26.225 30.9936C25.5188 31.7168 24.4875 31.7168 23.7813 30.9872C23.4063 30.6062 23.25 30.18 23.25 29.5537C23.25 29.205 23.2688 29.1404 23.3438 29.1727C23.4 29.1921 23.6188 29.2567 23.8313 29.3212ZM22.2875 30.1607C22.5188 31.2519 23.1313 32.0203 24.0563 32.3819C24.95 32.7242 25.9813 32.5434 26.7625 31.9106C27.1813 31.5683 27.5625 30.871 27.7125 30.1607L27.75 29.9863H28.7563C29.6938 29.9863 29.7625 29.9928 29.7188 30.0961C29.5063 30.6256 29.5 30.7483 29.5 34.7775V38.768H28.075H26.6563L26.3438 38.5356C26.1688 38.4064 25.8563 38.2192 25.6375 38.1159C24.9 37.7607 24.6313 37.7349 21.5875 37.7349H18.8063L18.6563 37.8963C18.45 38.1029 18.45 38.4 18.6563 38.6066L18.8063 38.768H21.1563H23.5V40.0594V41.3509H20.4C18.1438 41.3509 17.225 41.3315 17.0375 41.2734C16.675 41.1636 16.175 40.6341 16.0688 40.2532C16.0125 40.0336 16 39.2071 16.0125 36.8632L16.0375 33.7638L16.2063 33.2472C16.45 32.4982 16.775 31.9622 17.3438 31.3746C17.8875 30.8128 18.3375 30.5094 18.975 30.264C19.575 30.0444 19.9 29.9992 21.1375 29.9928L22.25 29.9863L22.2875 30.1607ZM43.5375 30.1542C43.6313 30.2252 43.7688 30.3673 43.8375 30.4642C43.9688 30.6385 43.9688 30.6902 43.9688 35.6686C43.9688 40.647 43.9688 40.6987 43.8375 40.873C43.7688 40.9699 43.6313 41.112 43.5375 41.183C43.3688 41.3186 43.3188 41.3186 36.9313 41.338L30.5 41.3509V36.0948C30.5 32.524 30.5188 30.7741 30.5688 30.6514C30.6563 30.4125 30.8625 30.18 31.0938 30.0767C31.25 30.0057 32.3813 29.9928 37.325 30.0057C43.3188 30.0186 43.3688 30.0186 43.5375 30.1542ZM25.3 39.0909C26.0375 39.446 26.7688 40.3758 26.9125 41.1378L26.9563 41.3509H25.725H24.5V40.0853V38.8132L24.7063 38.8584C24.8125 38.8842 25.0813 38.9876 25.3 39.0909ZM29.5 40.576V41.3509H28.725H27.9563L27.9188 41.0603C27.8813 40.8214 27.7938 40.5631 27.5188 39.8786C27.4938 39.8205 27.7125 39.8012 28.4938 39.8012H29.5V40.576ZM45 43.6754V44.9669H30H15V43.6754V42.384H30H45V43.6754Z" fill="white"/>
<path id="Vector_2" d="M36.6625 33.1503C36.2687 33.2536 35.7062 33.6023 35.4312 33.9058C35.2937 34.0607 35.0875 34.3836 34.9812 34.6225C34.8 35.0164 34.7812 35.1132 34.7812 35.675C34.7812 36.2562 34.7937 36.3143 35.0125 36.7792C35.2937 37.3668 35.6562 37.7284 36.2375 38.0125C36.6187 38.1997 36.7125 38.2191 37.25 38.2191C37.7875 38.2191 37.8812 38.1997 38.2625 38.0125C38.8437 37.7284 39.2062 37.3668 39.4875 36.7792C39.7062 36.3143 39.7187 36.2562 39.7187 35.6686C39.7187 35.081 39.7062 35.0228 39.4875 34.5579C39.0625 33.6798 38.3125 33.1567 37.3875 33.1115C37.125 33.0986 36.8 33.118 36.6625 33.1503ZM37.7125 34.1963C38.0562 34.2996 38.575 34.8356 38.675 35.1907C38.85 35.7977 38.725 36.282 38.2812 36.734C37.6375 37.4055 36.7125 37.3668 36.1187 36.6436C35.5875 36.0108 35.6312 35.2101 36.2187 34.6031C36.6562 34.1447 37.125 34.022 37.7125 34.1963Z" fill="white"/>
</g>
</g>
<defs>
<linearGradient id="paint0_linear_696_1781" x1="-50" y1="-20" x2="92" y2="80" gradientUnits="userSpaceOnUse">
<stop stop-color="#FA065B"/>
<stop offset="0.494792" stop-color="#FE0FD4"/>
<stop offset="1" stop-color="#FB05A8"/>
</linearGradient>
</defs>
</svg>
