<svg width="60" height="60" viewBox="0 0 60 60" fill="none" xmlns="http://www.w3.org/2000/svg">
<g id="Group 770984">
<g id="Group 94">
<rect id="Rectangle 24" width="60" height="60" rx="7" fill="url(#paint0_linear_676_1665)"/>
<g id="Group">
<g id="Group_2">
<path id="Vector" d="M38.9317 14.0569C37.1396 14.292 35.095 15.2449 34.1042 16.3059C33.5111 16.9475 33.4921 17.0111 33.145 19.5015L32.8358 21.706L30.8039 23.7516L28.7656 25.8037L26.9482 23.974C25.6987 22.7161 25.1497 22.1189 25.1749 22.0554C25.1939 22.0046 25.257 21.7377 25.3138 21.4709C25.4021 21.058 25.4021 20.9055 25.339 20.4544C25.2444 19.7937 24.891 19.0313 24.4934 18.6438C24.2221 18.377 18.3029 14.4635 18 14.3491C17.6655 14.2221 17.514 14.3301 16.069 15.7849C14.6933 17.1635 14.6617 17.2017 14.6617 17.4558C14.6617 17.6908 14.87 18.0339 16.7189 20.8864C17.8485 22.6272 18.8203 24.1074 18.8771 24.1709C19.0538 24.3742 19.6722 24.7491 20.0887 24.9079C20.4358 25.0413 20.6062 25.0667 21.193 25.0604C21.6411 25.0604 21.9882 25.0286 22.1775 24.9651L22.4741 24.8698L24.2789 26.6867L26.0836 28.5037L23.8308 30.7654L21.5717 33.0207L19.3946 33.3257C16.9461 33.6687 16.8893 33.6878 16.252 34.285C15.3243 35.149 14.4535 36.9151 14.1127 38.6178C13.9486 39.4373 13.9676 40.9747 14.1443 41.6418C14.3273 42.3279 14.5797 42.8679 14.8006 43.0522C14.9962 43.2174 15.2801 43.2555 15.4821 43.1475C15.5452 43.1157 15.8607 42.6456 16.1825 42.1056C16.9903 40.7524 17.6655 39.7994 17.9936 39.5707C18.5363 39.1768 19.262 39.2721 20.1203 39.8503C20.8838 40.3649 21.2435 40.943 21.2435 41.6609C21.2372 42.0548 21.2372 42.0611 20.4232 43.4461C19.445 45.0979 19.3946 45.1932 19.3946 45.3965C19.3946 45.4854 19.4766 45.6506 19.5776 45.7649L19.7606 45.9746L20.6314 45.9936C21.1047 46.0064 21.5906 46 21.7042 45.9746C21.9124 45.9365 23.2124 44.9835 24.506 43.9162C25.3643 43.2047 26.1594 42.4105 26.2856 42.131C26.3676 41.9468 26.3929 41.5465 26.4181 39.882L26.4497 37.8554L28.652 35.6382C29.8573 34.4248 30.8733 33.4273 30.9048 33.4273C30.9364 33.4273 31.3339 33.7958 31.7883 34.2532L32.615 35.0728L31.8072 35.8923C31.0563 36.661 31.0058 36.7246 31.0058 36.9596C31.0058 37.201 31.0752 37.2773 34.9309 41.1526C38.5026 44.7357 38.9002 45.1169 39.3041 45.3202C40.0739 45.7205 40.5914 45.8475 41.4181 45.8412C42.2573 45.8348 42.8632 45.6696 43.5636 45.263C44.0748 44.9645 45.0971 43.948 45.3873 43.4461C45.8669 42.6202 46.0878 41.591 45.9679 40.7079C45.8417 39.8121 45.5767 39.1959 45.0087 38.478C44.4723 37.7982 37.493 30.8353 37.3036 30.7908C36.9755 30.7082 36.7925 30.8226 36.0226 31.5913L35.2591 32.3473L34.4261 31.5024L33.5931 30.6638L35.6251 28.6181L37.6633 26.5787L39.7332 26.5343L41.7967 26.4898L42.0743 26.2992C42.5413 25.9943 43.5068 24.8761 44.9456 22.9893L45.7092 21.9791V20.9754C45.7092 20.3528 45.6839 19.9017 45.6398 19.8064C45.5325 19.5777 45.1665 19.4125 44.9393 19.5015C44.8446 19.5332 44.1063 19.9589 43.2986 20.4417L41.8282 21.3248H41.4181C40.8627 21.3248 40.4084 21.0961 39.9477 20.5942C39.5502 20.1685 39.1715 19.457 39.1084 19.0313C38.9822 18.1864 39.4618 17.7035 41.8977 16.2233C43.0083 15.5435 43.1282 15.3847 42.901 14.94C42.7306 14.6033 41.8409 14.2284 40.8501 14.0823C40.1938 13.9807 39.6006 13.9743 38.9317 14.0569ZM40.6608 15.3084L40.9448 15.3529L40.6293 15.5372C39.9477 15.9374 38.9759 16.6426 38.6604 16.9602C38.0483 17.5892 37.7643 18.4214 37.8905 19.2092C38.1177 20.6323 39.2725 22.0427 40.5283 22.4429C41.0142 22.5954 41.8345 22.6208 42.2132 22.5001C42.3457 22.4556 42.9073 22.1507 43.45 21.8203C43.9927 21.4963 44.4534 21.2295 44.4723 21.2295C44.4913 21.2295 44.5102 21.2994 44.5102 21.382C44.5102 21.6742 41.6768 25.2001 41.3991 25.2573C41.3234 25.2764 40.4399 25.3018 39.4303 25.3272C38.4269 25.3463 37.474 25.3907 37.3226 25.4161C37.0702 25.467 36.9124 25.6067 35.4925 27.0171C34.6406 27.8684 33.6625 28.8404 33.3217 29.1708L32.7096 29.7743L32.1922 29.2534L31.6747 28.7324L33.8013 26.547C35.4673 24.8317 35.928 24.3171 35.928 24.19C35.928 23.9422 35.7954 23.7072 35.6061 23.6055C35.1959 23.3959 35.2338 23.3641 32.9305 25.6766L30.7849 27.8366L30.217 27.2649L29.6491 26.6931L31.8325 24.4822L34.0159 22.2777L34.3125 20.1177C34.4766 18.9297 34.6406 17.856 34.6722 17.7226C34.893 16.8522 37.1333 15.5943 38.9317 15.3275C39.3861 15.264 40.2759 15.2513 40.6608 15.3084ZM20.6756 17.5574C22.1775 18.5421 23.4837 19.4189 23.5784 19.5078C23.6731 19.5968 23.8308 19.8255 23.9192 20.0224C24.1526 20.4989 24.1653 21.293 23.9507 21.7631C23.7362 22.2333 22.5624 23.4149 22.0765 23.65C21.4076 23.974 20.4484 23.866 19.912 23.4086C19.7984 23.3069 18.8897 21.9601 17.8801 20.4036L16.05 17.5765L16.9524 16.668C17.4446 16.1725 17.8674 15.7659 17.899 15.7659C17.9305 15.7659 19.18 16.5727 20.6756 17.5574ZM29.4282 28.2496L34.3819 33.2367L33.9086 33.7132L33.4353 34.1897L28.5006 29.2216C25.7807 26.4835 23.5595 24.2218 23.5595 24.1836C23.5595 24.1201 24.3798 23.2625 24.4429 23.2625C24.4619 23.2625 26.7021 25.5051 29.4282 28.2496ZM27.5161 29.9459C27.8064 30.2381 28.0399 30.4986 28.0399 30.5367C28.0399 30.5685 27.005 31.6421 25.7366 32.9191C23.4459 35.2252 23.4333 35.2379 23.4333 35.5048C23.4333 35.8415 23.6983 36.0956 24.0517 36.0956C24.2725 36.0956 24.3988 35.9749 26.5885 33.7767C27.8569 32.4998 28.9234 31.4579 28.9549 31.4579C28.9928 31.4579 29.2452 31.6866 29.5228 31.9661L30.0277 32.4744L27.7117 34.8123C26.4433 36.0956 25.3706 37.2074 25.3327 37.2836C25.2507 37.4488 25.1371 39.4246 25.1371 40.746V41.6736L24.6638 42.1183C24.1779 42.5757 22.7959 43.7066 21.9061 44.38C21.5591 44.6404 21.376 44.7421 21.2625 44.723C21.111 44.704 21.1299 44.6722 21.7105 43.6875C22.045 43.1284 22.3542 42.5312 22.4047 42.3534C22.575 41.718 22.4804 40.9811 22.1522 40.2886C21.8998 39.7613 21.1678 39.0053 20.562 38.6495C19.8426 38.2239 19.4577 38.1095 18.732 38.1032C18.1388 38.0968 18.0757 38.1095 17.6718 38.3128C17.4194 38.4335 17.0912 38.6686 16.8767 38.8846C16.5422 39.2149 15.3559 40.9112 15.3559 41.0573C15.3559 41.0955 15.3306 41.1082 15.3054 41.0891C15.2107 41.0319 15.1666 40.0218 15.2297 39.431C15.3937 38.0142 16.0879 36.3116 16.8578 35.4603C17.3941 34.8568 17.3437 34.8758 19.7101 34.5391C20.8712 34.3803 21.9251 34.2215 22.045 34.1897C22.2216 34.1389 22.7643 33.6243 24.6007 31.7755C25.8817 30.4859 26.9482 29.4249 26.9671 29.4249C26.9797 29.4249 27.2322 29.66 27.5161 29.9459ZM40.6987 35.8542C43.3175 38.5034 44.2767 39.5135 44.4029 39.755C44.8888 40.6952 44.8573 41.8959 44.3209 42.7917C44.0495 43.2491 43.2292 44.0433 42.8253 44.2466C41.8913 44.723 40.7239 44.7294 39.9225 44.2529C39.4176 43.9543 38.9191 43.4778 35.7134 40.1997L32.4951 36.9151L34.7984 34.5963C36.0605 33.3257 37.108 32.2838 37.1269 32.2838C37.1459 32.2838 38.755 33.8911 40.6987 35.8542Z" fill="white"/>
<path id="Vector_2" d="M36.1167 35.5298C35.7381 35.6823 35.5866 36.0571 35.757 36.3875C35.8138 36.4891 37.0885 37.8105 38.5904 39.3162C41.3607 42.0988 41.367 42.1052 41.7646 42.0734C41.9791 42.0544 42.2379 41.7113 42.2379 41.4508C42.2379 41.2221 42.1243 41.0951 39.4802 38.4268C37.1453 36.0698 36.4512 35.4281 36.2934 35.4663C36.2808 35.4663 36.2051 35.498 36.1167 35.5298Z" fill="white"/>
</g>
</g>
</g>
</g>
<defs>
<linearGradient id="paint0_linear_676_1665" x1="-50" y1="-20" x2="92" y2="80" gradientUnits="userSpaceOnUse">
<stop stop-color="#FA065B"/>
<stop offset="0.494792" stop-color="#FE0FD4"/>
<stop offset="1" stop-color="#FB05A8"/>
</linearGradient>
</defs>
</svg>
