<svg width="60" height="60" viewBox="0 0 60 60" fill="none" xmlns="http://www.w3.org/2000/svg">
<g id="Group 770984">
<g id="Group 94">
<rect id="Rectangle 24" width="60" height="60" rx="7" fill="url(#paint0_linear_676_1636)"/>
</g>
<g id="Group">
<path id="Vector" d="M21.8636 16.6211C17.5541 18.0659 14.014 19.2543 14.0015 19.2668C13.9765 19.2856 14.2642 20.1862 14.308 20.2238C14.3205 20.2363 17.7043 19.1229 21.8323 17.7469C25.9541 16.3709 29.3378 15.2451 29.344 15.2451C29.3565 15.2451 29.3565 18.7664 29.3503 23.0758L29.3315 30.9003L28.3308 31.2381C27.7804 31.4195 27.3113 31.5696 27.2863 31.5696C27.255 31.5696 27.2362 30.5251 27.2362 29.2491V26.9287L27.0549 26.7473C26.9548 26.6472 26.8172 26.5659 26.7484 26.5659C26.6796 26.5659 23.8838 27.3978 20.5376 28.4173C16.3658 29.6869 14.4018 30.3124 14.308 30.4L14.1642 30.5251V34.922V39.319L14.308 39.4691C14.3831 39.5567 15.6527 40.1946 17.1664 40.9139C18.6612 41.627 19.9059 42.2274 19.9309 42.2524C19.9559 42.2774 19.443 42.5339 18.7863 42.8278C18.1358 43.1218 17.5291 43.4283 17.4478 43.5096C17.2539 43.6972 17.2477 43.9599 17.4291 44.1663C17.5104 44.2539 18.2547 44.6479 19.1553 45.0732L20.7377 45.8238L20.9566 45.3484C21.0755 45.0857 21.163 44.8668 21.1568 44.8606C21.1443 44.8481 20.6939 44.6354 20.1498 44.379C19.6056 44.1225 19.1678 43.8849 19.1741 43.8536C19.1928 43.7973 21.138 42.8904 21.2443 42.8904C21.2756 42.8904 22.4765 43.4533 23.9213 44.1413C25.4287 44.8606 26.6108 45.3922 26.7171 45.3922C26.8485 45.3922 36.812 41.1829 37.9066 40.6637C38.213 40.5199 38.2443 40.3698 38.2443 39.1064C38.2443 38.4684 38.2631 37.9493 38.2944 37.9493C38.3194 37.9555 39.6579 38.5685 41.2778 39.3253L44.2112 40.695L43.5607 40.9952C43.1979 41.1641 41.1089 42.1148 38.9198 43.1093C36.7244 44.11 34.9294 44.9544 34.9294 44.9919C34.9294 45.0545 35.2984 45.8926 35.3297 45.8926C35.3359 45.8926 37.6877 44.823 40.5585 43.5158C43.6545 42.1086 45.8249 41.0891 45.8937 41.0077C45.95 40.9327 46 40.7951 46 40.7013C46 40.6075 45.95 40.4699 45.8937 40.3948C45.8311 40.326 44.0486 39.4629 41.9345 38.4746C39.8205 37.4927 38.0567 36.6546 38.0129 36.6233C37.9691 36.592 35.7487 35.6225 33.0718 34.478C30.3886 33.3271 28.2495 32.3764 28.2995 32.3577C28.3496 32.3389 28.7186 32.2138 29.1189 32.0762L29.8444 31.8323L37.3749 34.9533C41.5155 36.6671 44.9868 38.0743 45.0806 38.0743C45.1869 38.0743 45.3183 38.0118 45.4058 37.918L45.5622 37.7679V29.1741V20.5803L45.4246 20.4552C45.2495 20.2926 30.0446 13.9942 29.8507 14.0004C29.7694 14.0004 26.1792 15.1826 21.8636 16.6211ZM32.0523 15.9831L33.5221 16.5898L33.5409 24.3956C33.5471 28.6862 33.5346 32.195 33.5096 32.195C33.4783 32.195 32.7653 31.9073 31.9147 31.5571L30.3635 30.9191V23.1071C30.3635 15.7017 30.3698 15.3014 30.4761 15.3327C30.5324 15.3514 31.2454 15.6454 32.0523 15.9831ZM37.5 18.2348L40.3396 19.4107L40.3584 22.0501C40.3709 24.1204 40.3584 24.6895 40.2958 24.6895C40.252 24.6895 39.883 24.5582 39.4827 24.3956L38.7447 24.1016V23.2385V22.3753H38.2443H37.7439V23.2134V24.0516L36.2116 24.4331C35.3672 24.6395 34.6542 24.8146 34.6167 24.8146C34.5729 24.8146 34.5541 23.5199 34.5541 20.9368C34.5541 18.804 34.5791 17.0589 34.6041 17.0589C34.6292 17.0589 35.9364 17.5906 37.5 18.2348ZM42.8352 20.4427C43.5982 20.7554 44.2925 21.0556 44.3926 21.0994L44.5614 21.1932V28.9739C44.5614 33.2583 44.5427 36.7609 44.5177 36.7609C44.4864 36.7609 43.7796 36.4732 42.9353 36.1167L41.4029 35.4787L41.3841 27.673C41.3779 23.3823 41.3904 19.8735 41.4154 19.8735C41.4404 19.8735 42.0784 20.1299 42.8352 20.4427ZM37.7314 25.6903L37.7127 26.1531L36.3054 26.5034C35.5298 26.6973 34.8168 26.8786 34.723 26.9037L34.5479 26.9474L34.5666 26.4283L34.5854 25.9154L36.1178 25.5276C36.9621 25.3212 37.6751 25.1649 37.7002 25.1899C37.7252 25.2149 37.7439 25.4401 37.7314 25.6903ZM39.6579 25.5902L40.3396 25.8654L40.3584 26.347C40.3771 26.9037 40.4835 26.8911 39.4577 26.4783L38.776 26.2031L38.7572 25.7215C38.7384 25.1649 38.6321 25.1774 39.6579 25.5902ZM37.7439 29.3179V31.3757L37.4813 31.4445C37.3311 31.482 37.1122 31.5383 36.9934 31.5758C36.8746 31.6071 36.7557 31.6321 36.7244 31.6321C36.6994 31.6321 36.6869 30.7002 36.6932 29.5556L36.7119 27.4791L37.1185 27.3727C37.819 27.1914 37.7439 26.9662 37.7439 29.3179ZM39.6203 27.6792L40.3396 27.9732L40.3584 30.0309C40.3709 31.6634 40.3584 32.0762 40.2958 32.0512C40.252 32.0387 39.883 31.8886 39.4827 31.7259L38.7447 31.432V29.4055C38.7447 27.8231 38.7634 27.379 38.826 27.379C38.8635 27.3853 39.2263 27.5166 39.6203 27.6792ZM35.6174 29.8371V31.9198L35.1671 32.0262C34.9169 32.0887 34.6729 32.1325 34.6354 32.1325C34.5729 32.1325 34.5541 31.6759 34.5541 30.0747V28.017L35.042 27.8919C35.3047 27.8231 35.5423 27.7668 35.5736 27.7605C35.5986 27.7543 35.6174 28.6925 35.6174 29.8371ZM26.173 29.8746V31.9323L25.9791 32.0011C25.8665 32.0387 25.7539 32.0699 25.7289 32.0699C25.6976 32.0699 25.6726 31.6384 25.6726 31.113C25.6726 30.0685 25.6288 29.9059 25.3286 29.762C25.1597 29.6807 25.0471 29.712 23.4647 30.2311C22.4077 30.5814 21.726 30.8378 21.6321 30.9254C21.482 31.063 21.482 31.0817 21.482 32.2201V33.3709L21.0442 33.5022C20.8065 33.5773 20.5689 33.6524 20.5126 33.6711C20.4313 33.7024 20.4187 33.5773 20.4187 32.6766C20.4187 31.6822 20.4125 31.6321 20.2749 31.4695C20.1686 31.3444 20.0685 31.3006 19.9246 31.3069C19.812 31.3069 18.9927 31.5571 18.1045 31.851C16.8036 32.2826 16.4533 32.4265 16.3533 32.5515C16.2407 32.7017 16.2282 32.808 16.2282 33.8462V34.9783L15.7403 35.1222C15.4714 35.1972 15.2337 35.2598 15.2087 35.2598C15.1837 35.2598 15.1649 34.3341 15.1649 33.2083V31.1505L16.3408 30.794C16.985 30.5939 19.4243 29.8496 21.7635 29.1303C24.1027 28.4173 26.0541 27.8293 26.0979 27.8231C26.1542 27.8168 26.173 28.2672 26.173 29.8746ZM24.6093 31.6822V32.4202L23.6273 32.7142C23.0832 32.8768 22.6204 33.0081 22.5953 33.0081C22.5641 33.0081 22.5453 32.7017 22.5453 32.3264V31.6446L23.5648 31.3006C24.1215 31.1067 24.5843 30.9504 24.5968 30.9504C24.6031 30.9441 24.6093 31.2756 24.6093 31.6822ZM39.3201 32.8017L40.3709 33.2208V34.1152C40.3709 34.6093 40.3459 35.0096 40.3146 35.0096C40.2833 35.0096 39.2638 34.5968 38.0504 34.0964C36.837 33.5961 35.7738 33.1582 35.6924 33.127C35.6049 33.0957 35.5548 33.0519 35.5736 33.0331C35.6236 32.9769 37.9378 32.3952 38.1192 32.3889C38.2068 32.3827 38.7447 32.5703 39.3201 32.8017ZM19.343 33.3021L19.3242 34.0276L18.4485 34.2966C17.9669 34.4467 17.5104 34.578 17.4353 34.603C17.2915 34.6343 17.2915 34.6343 17.2915 33.9276V33.227L18.2484 32.9018C18.7675 32.7267 19.2366 32.5766 19.2804 32.5766C19.343 32.5703 19.3555 32.7392 19.343 33.3021ZM29.7381 34.1902L32.6465 35.4412L32.365 35.56C32.2086 35.6288 30.1446 36.5357 27.7679 37.574C25.3974 38.6122 23.4084 39.4754 23.3584 39.4941C23.2708 39.5192 16.3533 36.2668 16.2032 36.1292C16.1719 36.1042 16.272 36.0479 16.4221 36.0041C16.5722 35.954 18.9239 35.241 21.6384 34.4092C24.3591 33.5773 26.6358 32.9081 26.7046 32.9206C26.7734 32.9331 28.1369 33.5022 29.7381 34.1902ZM35.1671 36.517C35.8238 36.7984 36.3617 37.0361 36.3492 37.0486C36.3054 37.0924 26.936 41.0953 26.8109 41.1266C26.7171 41.1453 26.3231 40.989 25.6413 40.6637C25.0722 40.3885 24.6093 40.1509 24.6093 40.1321C24.6093 40.1008 33.8036 36.0416 33.9286 36.0166C33.9474 36.0103 34.5041 36.2355 35.1671 36.517ZM20.744 39.4816L26.1417 42.0585L26.1605 43.0405C26.1667 43.5784 26.1542 44.0162 26.1292 44.0162C26.0666 44.0162 15.34 38.8874 15.2462 38.8124C15.1837 38.7623 15.1649 38.4809 15.1649 37.7866C15.1649 36.9673 15.1774 36.8297 15.2587 36.861C15.3087 36.8797 17.7793 38.0618 20.744 39.4816ZM37.181 38.8687V39.8569L32.315 41.9334C29.6443 43.078 27.4051 44.0287 27.3488 44.0537C27.2425 44.0913 27.2362 44.0162 27.2362 43.103V42.1086L32.1336 40.0008C34.8231 38.8437 37.0622 37.8992 37.106 37.893C37.1623 37.8867 37.181 38.1244 37.181 38.8687Z" fill="white"/>
<path id="Vector_2" d="M20.1678 19.7984L15.383 21.4058L15.2704 21.6247C15.1704 21.8249 15.1641 22.0876 15.1766 25.0773L15.1954 28.3046L15.3455 28.4673C15.4456 28.5736 15.5644 28.6299 15.6895 28.6299C15.8709 28.6299 25.1026 25.5902 25.3966 25.4338C25.4717 25.3963 25.5655 25.2962 25.603 25.2086C25.653 25.1086 25.6718 24.0578 25.6718 21.8061V18.5475L25.4904 18.3661C25.3716 18.2473 25.2465 18.1847 25.1277 18.191C25.0338 18.191 22.801 18.9165 20.1678 19.7984ZM24.6085 22.025V24.6144L20.4617 25.9967C18.1851 26.7598 16.3024 27.379 16.2712 27.379C16.2461 27.379 16.2336 26.2156 16.2399 24.7958L16.2587 22.2189L20.3867 20.8304C22.6571 20.0674 24.5335 19.4419 24.5647 19.4419C24.5898 19.4356 24.6085 20.599 24.6085 22.025Z" fill="white"/>
<path id="Vector_3" d="M21.7215 22.4187L20.8021 23.3381L20.0828 23.1067C19.6763 22.9754 19.3135 22.8941 19.251 22.9191C19.1447 22.9566 17.6998 23.9011 17.581 24.0011C17.5435 24.0387 17.8812 24.6203 18.0814 24.8705C18.0939 24.883 18.4129 24.6891 18.7881 24.439L19.4761 23.9886L20.1516 24.2138C20.5207 24.3389 20.9084 24.439 21.0085 24.439C21.1649 24.439 21.3713 24.2638 22.3095 23.3319L23.4228 22.2248L23.0663 21.8621C22.8661 21.6619 22.691 21.4993 22.6722 21.4993C22.6535 21.4993 22.2282 21.9121 21.7215 22.4187Z" fill="white"/>
</g>
</g>
<defs>
<linearGradient id="paint0_linear_676_1636" x1="-50" y1="-20" x2="92" y2="80" gradientUnits="userSpaceOnUse">
<stop stop-color="#FA065B"/>
<stop offset="0.494792" stop-color="#FE0FD4"/>
<stop offset="1" stop-color="#FB05A8"/>
</linearGradient>
</defs>
</svg>
