<svg width="60" height="60" viewBox="0 0 60 60" fill="none" xmlns="http://www.w3.org/2000/svg">
<g id="Group 771002">
<rect id="Rectangle 57" width="60" height="60" rx="7" fill="url(#paint0_linear_696_1783)"/>
<g id="Group">
<path id="Vector" d="M29.3379 12.0436C28.5552 12.2409 27.7583 12.91 27.3987 13.6636C27.2365 14.0087 27.2154 14.1355 27.2224 14.7906C27.2224 15.1991 27.2436 15.5865 27.2577 15.6498C27.2788 15.7414 26.3974 16.2837 23.1608 18.1502L19.0357 20.5379L18.6832 20.2492C17.9005 19.6223 16.9274 19.4251 15.9895 19.7139C14.0433 20.3126 13.3523 22.7777 14.7132 24.2639C15.101 24.6865 15.4818 24.94 15.9966 25.1161L16.3209 25.2288V30.0042V34.7796L15.9966 34.8923C15.1927 35.167 14.4735 35.8291 14.1985 36.5405C13.444 38.5126 14.9389 40.5552 17.0261 40.4073C17.6607 40.365 18.0767 40.203 18.6338 39.7874C18.9511 39.548 19.0428 39.5057 19.1697 39.5691C19.2473 39.6043 21.1089 40.6749 23.3018 41.9357C26.4256 43.7458 27.2788 44.267 27.2577 44.3586C27.2436 44.422 27.2224 44.8094 27.2224 45.2179C27.2154 45.8729 27.2365 45.9997 27.3987 46.3448C27.6808 46.9435 28.1603 47.4295 28.7879 47.7324C29.2956 47.9859 29.359 48 30.0007 48C30.6424 48 30.7058 47.9859 31.2135 47.7324C31.8341 47.4295 32.2854 46.9787 32.5886 46.3589C32.7649 45.9997 32.786 45.8799 32.786 45.2531C32.786 44.8657 32.7649 44.4854 32.7296 44.4008C32.6802 44.267 32.8565 44.1543 34.4925 43.2105C35.4938 42.633 37.3201 41.5835 38.547 40.8721C39.774 40.1607 40.8317 39.5621 40.8881 39.5409C40.9445 39.5198 41.149 39.6184 41.3676 39.7874C41.9176 40.203 42.3477 40.365 42.9683 40.4073C44.1952 40.4918 45.2106 39.886 45.7536 38.745C45.951 38.3224 45.9722 38.2168 45.9722 37.611C45.9651 36.7658 45.7959 36.2939 45.2882 35.7446C44.9004 35.322 44.5196 35.0684 44.0048 34.8923L43.6805 34.7796V30.0042V25.2288L44.0048 25.1161C44.8087 24.8414 45.5279 24.1794 45.8029 23.468C46.5504 21.5029 45.0766 19.4744 42.9824 19.5941C42.3618 19.6293 41.7272 19.8899 41.2548 20.2985L40.9798 20.5379L38.6457 19.1927C37.3624 18.4531 35.4938 17.3755 34.4925 16.7979C32.8565 15.8541 32.6802 15.7414 32.7296 15.6076C32.7649 15.5231 32.786 15.1427 32.786 14.7553C32.786 14.1426 32.7578 14.0017 32.6027 13.6636C32.1443 12.6987 31.1994 12.0577 30.1699 12.0084C29.8597 11.9873 29.493 12.0084 29.3379 12.0436ZM30.8751 13.2692C31.5027 13.6354 31.7988 14.206 31.7495 14.9596C31.686 15.9809 30.734 16.7416 29.7186 16.5796C29.2673 16.5091 28.7314 16.1429 28.4846 15.7485C28.3154 15.4667 28.2731 15.3118 28.2519 14.9033C28.2308 14.4666 28.2519 14.3539 28.4282 14.0228C28.6468 13.6002 28.9923 13.2833 29.4084 13.1283C29.8174 12.9804 30.4872 13.0368 30.8751 13.2692ZM27.991 16.8331C28.1814 17.0444 28.7455 17.3825 29.1052 17.5093L29.4225 17.6149L29.4507 18.7348C29.4789 20.0097 29.5283 20.1435 30.0007 20.1435C30.452 20.1435 30.4872 20.0449 30.5084 18.7701L30.5296 17.6572L31.0091 17.46C31.277 17.3543 31.6507 17.136 31.8411 16.974L32.1866 16.6852L36.3117 19.0659L40.4439 21.4465L40.3874 21.7987C40.3169 22.2495 40.3169 22.6298 40.3874 23.0383L40.4439 23.3694L39.6118 23.8413C38.5823 24.4329 38.4624 24.5386 38.4624 24.8344C38.4624 25.0879 38.7233 25.3556 38.9772 25.3556C39.0547 25.3556 39.5342 25.1161 40.0419 24.8203C40.6131 24.4893 40.9939 24.3061 41.0432 24.3484C41.0855 24.3766 41.2759 24.5245 41.4663 24.6653C41.7554 24.8837 42.0868 25.0457 42.5381 25.1866C42.6086 25.2077 42.6227 26.2078 42.6086 30.0042L42.5875 34.8007L42.2349 34.9205C41.8682 35.0473 41.5227 35.2586 41.1984 35.5544L41.008 35.7305L40.0631 35.1881C39.5413 34.8923 39.0406 34.6528 38.9631 34.6528C38.7445 34.6528 38.4624 34.9627 38.4624 35.2022C38.4624 35.4628 38.6034 35.5826 39.6118 36.1601L40.4439 36.6391L40.3874 36.9701C40.3169 37.3786 40.3169 37.759 40.3874 38.2097L40.4439 38.5619L36.3188 40.9426L32.1866 43.3162L31.8059 43.0063C31.5943 42.8302 31.2276 42.6259 30.9949 42.5414L30.5789 42.3864L30.5507 41.2736C30.5225 39.9987 30.4731 39.8649 30.0007 39.8649C29.5283 39.8649 29.4789 39.9987 29.4507 41.2736L29.4225 42.3864L29.0064 42.5414C28.7737 42.6259 28.4071 42.8302 28.2026 43.0063L27.8148 43.3162L23.6826 40.9426L19.5575 38.5619L19.6139 38.2097C19.6845 37.759 19.6845 37.3786 19.6139 36.9701L19.5575 36.6391L20.3896 36.1601C21.398 35.5826 21.539 35.4628 21.539 35.2022C21.539 34.9557 21.2569 34.6528 21.0313 34.6528C20.9396 34.6528 20.4601 34.8923 19.9524 35.1881C19.3954 35.5121 19.0075 35.6952 18.9582 35.66C18.9159 35.6319 18.7255 35.4839 18.5351 35.3431C18.246 35.1177 17.8722 34.9416 17.4703 34.8219C17.3363 34.7867 17.3363 25.2218 17.4703 25.1866C17.9075 25.0457 18.246 24.8837 18.5351 24.6653C18.7255 24.5245 18.9159 24.3766 18.9582 24.3484C19.0075 24.3061 19.3883 24.4893 19.9595 24.8203C20.4672 25.1161 20.9467 25.3556 21.0242 25.3556C21.2781 25.3556 21.539 25.0879 21.539 24.8344C21.539 24.5386 21.4191 24.4329 20.3896 23.8413L19.5575 23.3694L19.6139 23.0383C19.6845 22.6298 19.6845 22.2495 19.6139 21.7987L19.5575 21.4465L21.3063 20.4464C22.2653 19.8899 24.1198 18.8264 25.4173 18.0728C26.7147 17.3121 27.8007 16.6993 27.8218 16.6923C27.843 16.6923 27.9205 16.7557 27.991 16.8331ZM17.4069 20.7211C17.8652 20.8619 18.3941 21.4254 18.5421 21.9255C18.796 22.8059 18.3588 23.6934 17.4844 24.0526C17.153 24.1934 16.4902 24.2005 16.1658 24.0667C15.0869 23.6159 14.7203 22.2565 15.4254 21.3268C15.8767 20.7422 16.6594 20.5027 17.4069 20.7211ZM43.9696 20.8338C45.0907 21.4184 45.2811 22.9045 44.3503 23.7286C43.9837 24.0455 43.6734 24.1653 43.1939 24.1653C42.4958 24.1723 41.9388 23.8483 41.6214 23.2708C41.283 22.6369 41.3112 21.9607 41.7131 21.3831C42.1926 20.6788 43.201 20.4323 43.9696 20.8338ZM17.6889 36.0545C18.4293 36.4418 18.7748 37.273 18.5421 38.0829C18.4505 38.4069 18.3447 38.5689 18.0626 38.8436C17.4703 39.4212 16.7299 39.5409 16.0318 39.1747C15.1857 38.738 14.819 37.7378 15.1998 36.9067C15.651 35.9136 16.7299 35.5403 17.6889 36.0545ZM43.8638 35.9559C44.2093 36.0967 44.6042 36.4911 44.7805 36.8715C45.1824 37.7308 44.8298 38.7239 43.9696 39.1747C43.2715 39.5409 42.5311 39.4212 41.9388 38.8436C41.3041 38.2238 41.2054 37.442 41.6638 36.6813C42.115 35.9277 43.0388 35.6248 43.8638 35.9559ZM30.8539 43.6402C31.4533 43.9712 31.7636 44.4994 31.7636 45.1967C31.7565 47.0703 29.1968 47.6549 28.4071 45.9574C27.9417 44.9643 28.4705 43.7881 29.5353 43.457C29.8949 43.3514 30.452 43.4289 30.8539 43.6402Z" fill="white"/>
<path id="Vector_2" d="M25.5786 21.5099C23.9285 21.9114 22.8215 23.5173 23.0683 25.1513C23.1599 25.7148 23.4632 26.4121 23.7805 26.7713L23.9991 27.0249L23.6112 27.2925C23.0048 27.7081 22.483 28.3349 22.1375 29.0533C21.792 29.7788 21.6721 30.2296 21.658 30.8917C21.6439 31.3002 21.665 31.3706 21.8131 31.4904C22.1586 31.7721 22.6663 31.5397 22.6663 31.0889C22.6734 30.6945 22.8779 29.8915 23.0965 29.4478C23.3715 28.8914 24.0343 28.2152 24.5773 27.9335L24.9722 27.7222L25.3952 27.8419C25.6279 27.9123 26.0651 27.9616 26.3754 27.9616H26.9395L27.0241 28.187C27.0664 28.3138 27.2357 28.5814 27.3837 28.7857L27.6658 29.152L27.2004 29.49C26.0933 30.3 25.3529 31.7157 25.3459 33.0117C25.3459 33.5259 25.4869 33.7372 25.8324 33.7372C26.2062 33.7372 26.3401 33.547 26.4036 32.9272C26.4671 32.3285 26.6292 31.8143 26.9183 31.3284C27.1651 30.9128 27.8562 30.2718 28.3004 30.0394C28.6812 29.8492 28.6812 29.8492 29.0831 29.9619C29.5908 30.1028 30.4088 30.1028 30.9165 29.9619C31.3184 29.8492 31.3184 29.8492 31.6922 30.0394C32.4114 30.4057 33.1659 31.279 33.4198 32.0397C33.4762 32.2299 33.5608 32.6314 33.589 32.9342C33.6384 33.3709 33.6877 33.5118 33.8076 33.6104C34.0191 33.7794 34.3364 33.7724 34.5198 33.5893C34.6608 33.4484 34.6679 33.385 34.6326 32.8286C34.555 31.4763 33.8005 30.1732 32.63 29.3633L32.3338 29.159L32.6088 28.7857C32.764 28.5885 32.9332 28.3138 32.9755 28.187L33.0601 27.9616H33.6243C33.9345 27.9616 34.3717 27.9123 34.6044 27.8419L35.0275 27.7222L35.4224 27.9335C35.9653 28.2152 36.6282 28.8914 36.9032 29.4478C37.1218 29.8986 37.3263 30.6945 37.3333 31.103C37.3333 31.5397 37.841 31.7721 38.1865 31.4904C38.3346 31.3706 38.3558 31.3002 38.3417 30.8917C38.3276 30.2296 38.2077 29.7788 37.8622 29.0533C37.5166 28.3349 36.9948 27.7081 36.3884 27.2925L36.0006 27.0249L36.2192 26.7713C36.5365 26.4121 36.8397 25.7148 36.9314 25.1513C37.2557 23.0454 35.3095 21.1225 33.2012 21.4676C32.1858 21.6367 31.1915 22.3551 30.7684 23.2214L30.5992 23.5666H29.9928H29.3863L29.2312 23.2285C28.9844 22.6932 28.3709 22.0875 27.7857 21.7987C27.0171 21.4183 26.326 21.3268 25.5786 21.5099ZM27.2075 22.6721C27.6164 22.8481 28.0395 23.2426 28.244 23.63C28.4133 23.954 28.4133 23.954 28.2722 24.0314C28.1947 24.0807 27.9479 24.285 27.7222 24.4963C27.2639 24.94 26.8619 25.6655 26.7914 26.1867C26.7703 26.3698 26.728 26.6093 26.7068 26.722L26.6715 26.9192L26.1638 26.891C25.0709 26.8206 24.2318 26.0177 24.1048 24.9259C24.0202 24.2005 24.401 23.3341 24.9863 22.9327C25.6702 22.4608 26.5094 22.3622 27.2075 22.6721ZM34.6044 22.7002C36.0147 23.3412 36.3461 25.2781 35.2179 26.2994C34.7877 26.6868 34.3999 26.8558 33.8358 26.891L33.3281 26.9192L33.2928 26.722C33.2717 26.6093 33.2294 26.3698 33.2082 26.1867C33.1377 25.6655 32.7358 24.94 32.2774 24.4963C32.0518 24.285 31.805 24.0807 31.7274 24.0385C31.5934 23.961 31.5934 23.9469 31.7063 23.7145C32.214 22.6509 33.5114 22.2002 34.6044 22.7002ZM30.8107 24.771C31.3043 24.933 31.9108 25.5458 32.08 26.0529C32.4326 27.1235 32.0165 28.2363 31.0434 28.7787C30.705 28.9618 30.6062 28.9829 29.9998 28.9829C29.3934 28.9829 29.2947 28.9618 28.9562 28.7787C27.7222 28.0955 27.4049 26.4332 28.3145 25.3978C28.9703 24.6512 29.8165 24.4399 30.8107 24.771Z" fill="white"/>
<path id="Vector_3" d="M32.6878 35.4981C32.3211 35.653 32.2153 36.0545 32.4692 36.3292C32.6102 36.4771 32.6807 36.4841 33.6326 36.4841C34.5634 36.4841 34.6692 36.47 34.7961 36.3433C34.9724 36.1672 34.9795 35.8432 34.8032 35.6319C34.6763 35.4699 34.6198 35.4628 33.7596 35.4488C33.266 35.4347 32.7794 35.4628 32.6878 35.4981Z" fill="white"/>
<path id="Vector_4" d="M25.1772 35.653C24.9163 36.0263 25.1419 36.4841 25.5862 36.4841C25.8471 36.4841 26.1221 36.2306 26.1221 35.9911C26.1221 35.9207 26.0586 35.7868 25.974 35.6812C25.7836 35.4347 25.3394 35.4206 25.1772 35.653Z" fill="white"/>
<path id="Vector_5" d="M27.0112 35.653C26.7503 36.0263 26.9759 36.4841 27.4201 36.4841C27.681 36.4841 27.956 36.2306 27.956 35.9911C27.956 35.9207 27.8926 35.7868 27.808 35.6812C27.6176 35.4347 27.1733 35.4206 27.0112 35.653Z" fill="white"/>
<path id="Vector_6" d="M28.8433 35.653C28.7798 35.7375 28.7305 35.8925 28.7305 35.9911C28.7305 36.301 28.9138 36.4841 29.2241 36.4841C29.4356 36.4841 29.5273 36.4419 29.6401 36.301C29.7247 36.1954 29.7882 36.0615 29.7882 35.9911C29.7882 35.9207 29.7247 35.7868 29.6401 35.6812C29.4497 35.4347 29.0055 35.4206 28.8433 35.653Z" fill="white"/>
<path id="Vector_7" d="M25.22 37.7025C25.0014 37.935 25.0155 38.266 25.2482 38.4491C25.4315 38.597 25.4879 38.597 30.0008 38.597C34.5137 38.597 34.5701 38.597 34.7535 38.4491C34.9932 38.259 35.0073 37.9068 34.7746 37.6955L34.6125 37.5405H29.9938H25.368L25.22 37.7025Z" fill="white"/>
</g>
</g>
<defs>
<linearGradient id="paint0_linear_696_1783" x1="-50" y1="-20" x2="92" y2="80" gradientUnits="userSpaceOnUse">
<stop stop-color="#FA065B"/>
<stop offset="0.494792" stop-color="#FE0FD4"/>
<stop offset="1" stop-color="#FB05A8"/>
</linearGradient>
</defs>
</svg>
