<svg width="17" height="17" viewBox="0 0 17 17" fill="none" xmlns="http://www.w3.org/2000/svg">
<path d="M6.0112 0.281591C3.9584 0.322651 3.6231 0.343181 3.1647 0.466341C1.7072 0.863221 0.879241 1.68436 0.489211 3.14186C0.366041 3.60026 0.34551 3.94236 0.30446 6.07726C0.28393 7.39796 0.28393 9.57386 0.30446 10.9014C0.34551 13.0294 0.366041 13.3716 0.489211 13.83C0.879241 15.2875 1.7072 16.1155 3.1647 16.5055C3.6231 16.6287 3.9653 16.6492 6.1002 16.6902C7.4208 16.7108 9.5967 16.7108 10.9242 16.6902C13.0659 16.6492 13.3944 16.6287 13.8665 16.4987C15.283 16.1223 16.1451 15.267 16.5283 13.8437C16.6515 13.3647 16.672 13.05 16.7131 10.8945C16.7336 9.57386 16.7336 7.39796 16.7131 6.07046C16.672 3.93556 16.6515 3.60026 16.5283 3.14186C16.1383 1.68436 15.3035 0.849531 13.8528 0.466341C13.3191 0.329491 13.1823 0.322651 9.3299 0.254221C8.7825 0.247381 7.2908 0.261061 6.0112 0.281591ZM14.3045 1.99226C14.5645 2.08806 14.8724 2.38226 14.9819 2.64916C15.3172 3.42236 14.7219 4.31186 13.8802 4.31186C13.237 4.31186 12.6828 3.76446 12.6828 3.12126C12.6828 2.29336 13.5312 1.69806 14.3045 1.99226ZM10.1715 3.60706C10.9995 3.89446 11.4579 4.18876 12.108 4.82506C12.7375 5.44776 13.1275 6.06366 13.4149 6.87786C13.5928 7.38426 13.6065 7.50056 13.6065 8.48586C13.6065 9.47126 13.5928 9.58756 13.4149 10.094C13.1412 10.8809 12.7307 11.5241 12.1422 12.1194C11.5469 12.7078 10.9037 13.1184 10.1168 13.3921C9.6104 13.57 9.4941 13.5837 8.5088 13.5837C7.5234 13.5837 7.4071 13.57 6.9007 13.3921C6.0865 13.1047 5.4706 12.7147 4.848 12.0852C4.2116 11.4351 3.9242 10.9767 3.6231 10.1487C3.4179 9.56706 3.411 9.50546 3.411 8.48586C3.4179 7.52106 3.4315 7.37736 3.6026 6.87786C3.9584 5.81726 4.7179 4.81826 5.6349 4.20926C6.6339 3.54556 7.3524 3.34706 8.6456 3.37446C9.4667 3.39496 9.6309 3.42236 10.1715 3.60706Z" fill="#FF0909"/>
</svg>
