<svg width="35" height="35" viewBox="0 0 35 35" fill="none" xmlns="http://www.w3.org/2000/svg">
<path d="M14.9491 22.3304L14.9491 22.3304C15.0211 22.3969 15.173 22.5094 15.3446 22.6331C15.5294 22.7663 15.7723 22.9372 16.0529 23.1321C16.6145 23.5222 17.3333 24.0127 18.0538 24.4985C18.7744 24.9844 19.4984 25.4668 20.0705 25.8407C20.3563 26.0275 20.6059 26.1883 20.7989 26.3093C20.9717 26.4176 21.1319 26.5151 21.2256 26.559C21.5603 26.7212 21.8503 26.7716 22.2405 26.7716C22.4324 26.7716 22.6277 26.77 22.8045 26.7178C23.0097 26.6573 23.1479 26.544 23.2622 26.4413C23.4816 26.2511 23.6554 25.9723 23.7881 25.6829C23.926 25.3823 24.0378 25.0298 24.1128 24.6581C24.4922 22.8004 25.554 16.3396 25.863 14.0436C25.8631 14.0434 25.8631 14.0432 25.8631 14.043L25.3676 13.9763C25.7166 11.4076 25.7097 11.1405 25.306 10.7569L14.9491 22.3304ZM14.9491 22.3304L14.9465 22.328C14.5841 21.9883 14.2663 21.4926 14.3913 20.9644L14.3917 20.9626C14.4689 20.6415 14.676 20.3575 15.0347 19.9706C15.4026 19.5738 15.9992 19 16.9575 18.0987C17.9612 17.1545 18.7452 16.4087 19.3212 15.8497C18.7854 16.2039 18.0512 16.6928 17.0377 17.3677C16.8716 17.4783 16.698 17.5939 16.5166 17.7146L16.5164 17.7148C14.4791 19.0699 13.4057 19.7822 12.7361 20.1476C12.3952 20.3336 12.128 20.4475 11.8693 20.5069C11.6079 20.567 11.3839 20.5639 11.1649 20.5588C10.9457 20.5541 10.6136 20.4964 10.264 20.422C9.9004 20.3445 9.47586 20.2396 9.05195 20.1244C8.22169 19.8987 7.33278 19.6172 6.91674 19.4109L6.91506 19.4101C6.47846 19.1915 6.05078 18.7962 6.14014 18.2209C6.21752 17.7227 6.66155 17.3722 7.12638 17.1394M14.9491 22.3304L25.6514 10.3954C25.4566 10.2087 25.2178 10.0759 24.8932 10.0402C24.5979 10.0077 24.2598 10.059 23.86 10.1648C23.061 10.3763 21.8142 10.8639 19.7657 11.7052C16.9383 12.8606 7.9125 16.7429 7.12638 17.1394M7.12638 17.1394C7.12611 17.1395 7.12584 17.1397 7.12558 17.1398L7.35098 17.5861L7.12718 17.139C7.12691 17.1391 7.12665 17.1393 7.12638 17.1394ZM15.882 0.54108L15.8806 0.541225C10.5588 1.09394 5.89957 3.98874 3.06675 8.50202L3.06671 8.50208C-0.94739 14.8954 -0.187773 23.3882 4.88639 28.9131C7.71508 31.9912 11.2085 33.8206 15.4206 34.421L15.4208 34.4211C15.7872 34.4734 16.6285 34.5016 17.5113 34.4999C18.3925 34.4982 19.2436 34.4669 19.6265 34.4139C23.7684 33.8406 27.2616 32.0187 30.0838 28.9537L30.0841 28.9534C32.3983 26.4443 33.8839 23.2247 34.4044 19.5907L34.4045 19.5904C34.4568 19.2267 34.4866 18.3842 34.4866 17.5039C34.4866 16.6237 34.4568 15.7812 34.4045 15.4175L34.4043 15.4164C34.0104 12.6364 33.1323 10.2896 31.6772 8.09465L31.6759 8.09277C31.0661 7.16386 30.4513 6.40874 29.5834 5.53323L29.5825 5.53238C26.9296 2.84341 23.6491 1.18736 19.8616 0.627602C19.4742 0.570904 18.6843 0.526638 17.8682 0.508675C17.051 0.490685 16.264 0.500332 15.882 0.54108Z" fill="white" stroke="white"/>
<rect x="0.5" y="0.5" width="34" height="33.9851" rx="16.9926" stroke="white"/>
</svg>
