<svg width="35" height="35" viewBox="0 0 35 35" fill="none" xmlns="http://www.w3.org/2000/svg">
<path d="M15.8322 0.0438538C10.3581 0.611794 5.56146 3.58834 2.6465 8.22763C-1.48644 14.7966 -0.713226 23.4798 4.50769 29.2003C7.40212 32.3684 11.015 34.2638 15.3532 34.8797C16.1607 34.996 18.8498 34.9891 19.6983 34.8797C23.6602 34.3322 27.2047 32.5737 29.9007 29.823C30.7902 28.9197 30.975 28.7076 31.5634 27.9276C33.3151 25.5942 34.4578 22.7477 34.9026 19.6411C35.0189 18.8337 35.0189 16.1377 34.9026 15.3303C34.6084 13.257 34.0678 11.4916 33.2125 9.76038C32.2956 7.92656 31.365 6.61962 29.9075 5.14845C27.2047 2.4114 23.8244 0.707588 19.9378 0.132809C19.0962 0.00963974 16.667 -0.0451012 15.8322 0.0438538ZM21.6348 7.49547C23.6054 7.62548 24.755 8.05657 25.8088 9.05559C26.8762 10.0751 27.3689 11.3273 27.4989 13.3596C27.5879 14.6939 27.5879 20.2433 27.4989 21.5981C27.3689 23.6509 26.8625 24.9168 25.7677 25.95C24.7482 26.9148 23.5712 27.3528 21.6348 27.4759C20.321 27.5581 14.6964 27.5581 13.3826 27.4759C11.4119 27.3459 10.2623 26.9148 9.20857 25.9158C8.14112 24.8963 7.64846 23.6441 7.51845 21.6118C7.42949 20.2843 7.43634 14.5776 7.51845 13.3185C7.6553 11.3137 8.14797 10.0683 9.20857 9.05559C10.2213 8.09762 11.4324 7.61864 13.191 7.50232C14.3474 7.4202 20.451 7.4202 21.6348 7.49547Z" fill="white"/>
<path d="M15.0112 9.28143C12.9584 9.32249 12.6231 9.34302 12.1647 9.46618C10.7072 9.86306 9.87924 10.6842 9.48921 12.1417C9.36604 12.6001 9.34551 12.9422 9.30446 15.0771C9.28393 16.3978 9.28393 18.5737 9.30446 19.9012C9.34551 22.0292 9.36604 22.3714 9.48921 22.8298C9.87924 24.2873 10.7072 25.1153 12.1647 25.5053C12.6231 25.6285 12.9653 25.649 15.1002 25.69C16.4208 25.7106 18.5967 25.7106 19.9242 25.69C22.0659 25.649 22.3944 25.6285 22.8665 25.4985C24.283 25.1221 25.1451 24.2668 25.5283 22.8435C25.6515 22.3645 25.672 22.0498 25.7131 19.8943C25.7336 18.5737 25.7336 16.3978 25.7131 15.0703C25.672 12.9354 25.6515 12.6001 25.5283 12.1417C25.1383 10.6842 24.3035 9.84937 22.8528 9.46618C22.3191 9.32933 22.1823 9.32249 18.3299 9.25406C17.7825 9.24722 16.2908 9.2609 15.0112 9.28143ZM23.3045 10.9921C23.5645 11.0879 23.8724 11.3821 23.9819 11.649C24.3172 12.4222 23.7219 13.3117 22.8802 13.3117C22.237 13.3117 21.6828 12.7643 21.6828 12.1211C21.6828 11.2932 22.5312 10.6979 23.3045 10.9921ZM19.1715 12.6069C19.9995 12.8943 20.4579 13.1886 21.108 13.8249C21.7375 14.4476 22.1275 15.0635 22.4149 15.8777C22.5928 16.3841 22.6065 16.5004 22.6065 17.4857C22.6065 18.4711 22.5928 18.5874 22.4149 19.0938C22.1412 19.8807 21.7307 20.5239 21.1422 21.1192C20.5469 21.7076 19.9037 22.1182 19.1168 22.3919C18.6104 22.5698 18.4941 22.5835 17.5088 22.5835C16.5234 22.5835 16.4071 22.5698 15.9007 22.3919C15.0865 22.1045 14.4706 21.7145 13.848 21.085C13.2116 20.4349 12.9242 19.9765 12.6231 19.1485C12.4179 18.5669 12.411 18.5053 12.411 17.4857C12.4179 16.5209 12.4315 16.3772 12.6026 15.8777C12.9584 14.8171 13.7179 13.8181 14.6349 13.2091C15.6339 12.5454 16.3524 12.3469 17.6456 12.3743C18.4667 12.3948 18.6309 12.4222 19.1715 12.6069Z" fill="white"/>
<path d="M16.7008 14.2423C14.9012 14.7213 13.8063 16.5277 14.258 18.2657C14.5864 19.5179 15.4759 20.4075 16.735 20.7359C19.0888 21.3518 21.3743 19.0663 20.7584 16.7125C20.2795 14.8855 18.4525 13.7701 16.7008 14.2423Z" fill="white"/>
</svg>
