<svg width="337" height="20" viewBox="0 0 337 20" fill="none" xmlns="http://www.w3.org/2000/svg">
<path d="M0.152 1.144H19.904V5.512H6.872V7.744H19.64V12.088H6.872V14.536H20.096V19H0.152V1.144ZM28.9049 19H20.6969L28.8809 9.832L20.9609 1.144H29.6729L34.2089 6.4L38.7689 1.144H46.8569L39.1289 9.76L47.2169 19H38.8409L33.8489 13.408L28.9049 19ZM58.9089 19.336H57.9729C47.0049 19.336 45.3489 13.744 45.3489 10.36V9.664C45.3489 6.256 46.8369 0.808 57.9729 0.808H58.9089C69.7569 0.808 71.3409 5.728 71.3409 8.032V8.344H64.2609C64.1169 7.864 63.5649 5.608 58.3809 5.608C53.4609 5.608 52.4049 7.792 52.4049 9.784V10.072C52.4049 11.992 53.6049 14.512 58.4049 14.512C63.6609 14.512 64.1889 11.992 64.2849 11.584H71.3409V11.968C71.3409 14.296 69.6609 19.336 58.9089 19.336ZM72.9723 1.144H79.7883V13.888H92.1723V19H72.9723V1.144ZM92.96 9.664V1.144H99.8V9.136C99.8 11.32 100.76 13.936 105.272 13.936C109.712 13.936 110.72 11.32 110.72 9.136V1.144H117.536V9.664C117.536 13.12 115.88 19.288 105.776 19.288H104.816C94.424 19.288 92.96 13.12 92.96 9.664ZM131.9 19.336H129.716C119.852 19.336 118.82 15.328 118.82 13V12.76H126.308C126.38 13.72 126.884 15.28 130.772 15.28H130.988C134.804 15.28 135.356 14.464 135.356 13.6V13.576C135.356 12.664 134.9 12.088 131.156 11.968L127.844 11.872C120.932 11.68 119.084 9.256 119.084 6.496V6.28C119.084 3.376 121.028 0.831999 129.356 0.831999H131.492C140.324 0.831999 142.34 3.64 142.34 6.472V6.664H134.924C134.852 6.016 134.468 4.768 130.604 4.768H130.364C126.788 4.768 126.428 5.392 126.428 6.088V6.112C126.428 6.832 126.956 7.408 130.316 7.48L133.532 7.552C140.324 7.744 142.964 9.328 142.964 12.928V13.264C142.964 16.264 141.284 19.336 131.9 19.336ZM151.296 1.144V19H144.504V1.144H151.296ZM170.205 19H161.157L152.133 1.144H159.861L165.861 13.6L171.501 1.144H178.581L170.205 19ZM179.425 1.144H199.177V5.512H186.145V7.744H198.913V12.088H186.145V14.536H199.369V19H179.425V1.144ZM208.629 19V1.144H217.989L223.461 11.176L229.029 1.144H238.005V19H231.261V7.864L224.997 19H221.517L215.277 7.864V19H208.629ZM252.748 0.808H253.828C265.348 0.808 266.836 6.304 266.836 9.664V10.384C266.836 13.72 265.372 19.336 253.828 19.336H252.748C241.18 19.336 239.716 13.72 239.716 10.384V9.664C239.716 6.304 241.18 0.808 252.748 0.808ZM259.78 10.168V9.832C259.78 7.936 258.556 5.608 253.276 5.608C247.9 5.608 246.772 7.936 246.772 9.832V10.12C246.772 11.992 247.996 14.512 253.276 14.512C258.556 14.512 259.78 12.088 259.78 10.168ZM268.535 19V1.144H281.207C291.503 1.144 294.095 5.392 294.095 9.592V10.312C294.095 14.368 291.863 19 281.231 19H268.535ZM275.351 5.824V14.272H280.415C286.367 14.272 287.015 11.656 287.015 10.096V9.952C287.015 8.392 286.367 5.824 280.415 5.824H275.351ZM295.722 1.144H315.474V5.512H302.442V7.744H315.21V12.088H302.442V14.536H315.666V19H295.722V1.144ZM317.636 1.144H324.452V13.888H336.836V19H317.636V1.144Z" fill="black"/>
</svg>
