<svg width="512" height="512" viewBox="0 0 512 512" fill="none" xmlns="http://www.w3.org/2000/svg">
<path d="M36.9071 37.7599L60.8005 16.8533C82.5605 -4.90673 119.467 -5.9734 142.934 17.9199L182.827 70.1866C205.227 92.5866 205.227 129.067 182.827 151.253L151.04 183.893C185.6 264.96 249.387 328.96 327.894 360.96L360.534 329.173C371.414 318.293 385.707 312.32 401.067 312.32C416.427 312.32 430.721 318.293 440.534 328.32L494.721 370.133C517.121 392.533 517.121 429.013 495.147 450.773L473.387 475.733C449.92 499.2 418.347 512.213 384 512.213C218.667 512.213 -0.426203 292.907 -0.426203 127.787C-0.426203 93.6533 12.5871 61.8666 36.4805 37.9733L36.9071 37.7599ZM384.427 490.667C413.014 490.667 439.254 480 458.241 461.013L480.001 435.84C494.081 421.76 494.08 398.933 481.067 385.707L426.881 343.893C420.054 337.067 411.094 333.227 401.28 333.227C391.467 333.227 382.507 337.067 375.68 343.893L337.921 380.8C334.934 383.787 330.667 384.64 326.614 383.147C237.654 349.227 165.334 276.907 128.427 185.173C126.934 181.333 127.787 176.853 130.774 173.653L167.68 135.893C181.76 121.813 181.76 98.9866 166.827 83.8399L126.934 31.5733C112.854 17.4933 90.0272 17.4933 75.3072 31.9999L51.4138 52.9066C32.0005 72.3199 21.3338 98.5599 21.3338 127.147C21.3338 279.893 231.68 490.24 384.427 490.24V490.667Z" fill="black"/>
</svg>
