<svg width="60" height="60" viewBox="0 0 60 60" fill="none" xmlns="http://www.w3.org/2000/svg">
<rect width="60" height="60" rx="7" fill="white"/>
<path d="M26.0553 14.0703C22.9692 14.3892 20.1143 15.7521 17.8966 17.9654C16.3598 19.5035 15.3228 21.1791 14.6606 23.1923C13.7798 25.8683 13.7798 28.6443 14.6606 31.3203C15.3228 33.3398 16.3661 35.0216 17.9091 36.5534C20.9577 39.5858 25.112 40.9613 29.3975 40.3548C31.6027 40.0422 33.8142 39.1356 35.5508 37.8289C35.7383 37.6851 35.9069 37.5788 35.9319 37.5851C35.9569 37.5976 37.8498 39.4482 40.1362 41.6991C42.7412 44.2625 44.3842 45.8318 44.5341 45.9006C45.1463 46.1882 45.8335 45.8256 45.9585 45.1503C46.0584 44.6251 46.4083 45.0003 39.5615 38.2353L37.425 36.122L37.7873 35.6969C39.3491 33.89 40.3798 31.6016 40.7734 29.1007C40.9233 28.1254 40.9233 26.3372 40.7734 25.3494C40.3299 22.4796 39.0742 20.0162 36.9814 17.9342C34.1078 15.0769 30.1034 13.6576 26.0553 14.0703ZM29.0476 16.1648C31.5715 16.5337 33.7892 17.6341 35.5446 19.3847C37.6936 21.5417 38.8118 24.224 38.8118 27.2563C38.8118 28.3755 38.7119 29.1445 38.4495 30.1136C37.1251 35.0404 32.6335 38.4479 27.4609 38.4479C24.3811 38.4479 21.5199 37.2787 19.3834 35.1404C17.9341 33.6899 16.9658 32.0143 16.441 30.0698C15.9788 28.338 15.9788 26.1747 16.441 24.4428C17.4906 20.5289 20.5953 17.4465 24.5123 16.4336C25.9366 16.0648 27.6795 15.9585 29.0476 16.1648Z" fill="black"/>
<path d="M26.0553 14.0703C22.9692 14.3892 20.1143 15.7521 17.8966 17.9654C16.3598 19.5035 15.3228 21.1791 14.6606 23.1923C13.7798 25.8683 13.7798 28.6443 14.6606 31.3203C15.3228 33.3398 16.3661 35.0216 17.9091 36.5534C20.9577 39.5858 25.112 40.9613 29.3975 40.3548C31.6027 40.0422 33.8142 39.1356 35.5508 37.8289C35.7383 37.6851 35.9069 37.5788 35.9319 37.5851C35.9569 37.5976 37.8498 39.4482 40.1362 41.6991C42.7412 44.2625 44.3842 45.8318 44.5341 45.9006C45.1463 46.1882 45.8335 45.8256 45.9585 45.1503C46.0584 44.6251 46.4083 45.0003 39.5615 38.2353L37.425 36.122L37.7873 35.6969C39.3491 33.89 40.3798 31.6016 40.7734 29.1007C40.9233 28.1254 40.9233 26.3372 40.7734 25.3494C40.3299 22.4796 39.0742 20.0162 36.9814 17.9342C34.1078 15.0769 30.1034 13.6576 26.0553 14.0703ZM29.0476 16.1648C31.5715 16.5337 33.7892 17.6341 35.5446 19.3847C37.6936 21.5417 38.8118 24.224 38.8118 27.2563C38.8118 28.3755 38.7119 29.1445 38.4495 30.1136C37.1251 35.0404 32.6335 38.4479 27.4609 38.4479C24.3811 38.4479 21.5199 37.2787 19.3834 35.1404C17.9341 33.6899 16.9658 32.0143 16.441 30.0698C15.9788 28.338 15.9788 26.1747 16.441 24.4428C17.4906 20.5289 20.5953 17.4465 24.5123 16.4336C25.9366 16.0648 27.6795 15.9585 29.0476 16.1648Z" fill="url(#paint0_linear_702_119)"/>
<defs>
<linearGradient id="paint0_linear_702_119" x1="14" y1="30.0013" x2="45.9952" y2="30.0013" gradientUnits="userSpaceOnUse">
<stop stop-color="#0091D7"/>
<stop offset="1" stop-color="#FE0FD4"/>
</linearGradient>
</defs>
</svg>
