<svg width="35" height="35" viewBox="0 0 35 35" fill="none" xmlns="http://www.w3.org/2000/svg">
<path d="M15.835 0.043901C10.3588 0.612431 5.56034 3.59208 2.64427 8.23621C-1.49026 14.8188 -0.709901 23.5591 4.51986 29.2513C7.42909 32.4159 11.0297 34.2995 15.3559 34.916C16.1705 35.0325 18.8606 35.0256 19.7026 34.9092C23.9603 34.3201 27.5609 32.4433 30.4633 29.2924C32.8523 26.7032 34.3788 23.3879 34.9127 19.6616C35.0291 18.8533 35.0291 16.1545 34.9127 15.3463C34.5089 12.4968 33.6053 10.0788 32.1062 7.81838C31.4764 6.85941 30.8398 6.07854 29.9499 5.18122C27.2187 2.41392 23.8371 0.708327 19.9422 0.132948C19.1002 0.00965224 16.6702 -0.0451458 15.835 0.043901ZM25.3157 10.7569C25.7196 11.1405 25.7264 11.4076 25.3773 13.9763C25.0693 16.2641 24.0083 22.7166 23.6318 24.5592C23.4949 25.2373 23.2279 25.8195 22.9404 26.0661C22.735 26.2511 22.6597 26.2716 22.249 26.2716C21.9136 26.2716 21.7014 26.2305 21.4481 26.1072C21.01 25.9086 15.6502 22.2919 15.2943 21.9631C14.9725 21.6617 14.8219 21.3398 14.8836 21.0795C14.9725 20.7096 15.3833 20.2712 17.3068 18.4629C19.5794 16.3258 20.7362 15.1956 20.9005 14.949C21.0511 14.7161 20.9416 14.49 20.6815 14.49C20.4556 14.49 20.6404 14.3736 16.2458 17.2984C12.1455 20.0246 12.0496 20.0794 11.1803 20.0589C10.5163 20.0452 7.87403 19.326 7.14159 18.9629C6.38861 18.5862 6.4776 18.0245 7.35379 17.5861C8.11361 17.2025 17.1288 13.3256 19.9627 12.168C24.0836 10.4761 24.816 10.2774 25.3157 10.7569Z" fill="white"/>
<linearGradient id="paint0_linear_702_119" x1="14" y1="30.0013" x2="45.9952" y2="30.0013" gradientUnits="userSpaceOnUse">
<stop stop-color="#0091D7"/>
<stop offset="1" stop-color="#FE0FD4"/>
</linearGradient>
</svg>
