<svg width="35" height="35" viewBox="0 0 35 35" fill="none" xmlns="http://www.w3.org/2000/svg">
<path d="M15.8322 0.0438538C10.3581 0.611794 5.56146 3.58834 2.6465 8.22763C-1.48644 14.7966 -0.713226 23.4798 4.50769 29.2003C7.40212 32.3684 11.015 34.2638 15.3532 34.8797C16.1607 34.996 18.8498 34.9891 19.6983 34.8797C23.6602 34.3322 27.2047 32.5737 29.9007 29.823C30.7902 28.9197 30.975 28.7076 31.5634 27.9276C33.3151 25.5942 34.4578 22.7477 34.9026 19.6411C35.0189 18.8337 35.0189 16.1377 34.9026 15.3303C34.6084 13.257 34.0678 11.4916 33.2125 9.76038C32.2956 7.92656 31.365 6.61962 29.9075 5.14845C27.2047 2.4114 23.8244 0.707588 19.9378 0.132809C19.0962 0.00963974 16.667 -0.0451012 15.8322 0.0438538ZM21.2379 7.81708C21.3884 8.98717 21.7579 9.88355 22.4011 10.6636C23.2359 11.6763 24.4813 12.3264 25.8361 12.4632C26.0816 12.4905 26.2672 12.6979 26.2672 12.9449V14.126V15.0963C26.2672 15.4454 25.9724 15.722 25.624 15.6998C25.2682 15.6724 24.8029 15.6108 24.5908 15.5698C23.6602 15.3782 22.4696 14.8718 21.669 14.3313C21.4569 14.1807 21.2653 14.0644 21.2447 14.0644C21.2311 14.0644 21.2174 15.8708 21.2242 18.081C21.2379 22.0634 21.2379 22.1113 21.0805 22.7203C20.5126 24.951 18.8019 26.689 16.5849 27.2775C15.7638 27.4896 14.5732 27.5238 13.7452 27.3528C11.275 26.8464 9.35911 24.9579 8.85276 22.5424C8.71591 21.9129 8.72275 20.6949 8.8596 20.0312C8.97592 19.4495 9.29753 18.6421 9.65334 18.0536C9.95442 17.5541 10.7892 16.6577 11.3093 16.2882C12.4999 15.4466 14.1216 14.9881 15.4559 15.125C15.7278 15.1522 15.9349 15.381 15.9349 15.6543V16.8357V18.2362C15.9349 18.3684 15.8093 18.4645 15.6817 18.43C15.538 18.3889 15.148 18.3752 14.8058 18.3889C14.0258 18.4231 13.4373 18.6832 12.9036 19.2306C11.1998 20.9618 12.1646 23.8357 14.58 24.212C16.1538 24.4583 17.6866 23.3019 17.9192 21.6939C17.9603 21.4065 17.9877 18.5121 17.9877 14.3518V9.09665C17.9877 8.21234 18.7045 7.49547 19.5888 7.49547H20.8726C21.058 7.49547 21.2144 7.63323 21.2379 7.81708Z" fill="white"/>
<rect x="0.5" y="0.551453" width="34" height="33.9487" rx="16.9744" stroke="white"/>
</svg>
