<svg width="35" height="35" viewBox="0 0 35 35" fill="none" xmlns="http://www.w3.org/2000/svg">
<path d="M16.2356 0.0102663C13.5902 0.263486 11.5958 0.838363 9.43019 1.9539C6.12688 3.66484 3.46094 6.38182 1.80928 9.72158C1.17192 11.0014 0.877227 11.7884 0.541414 13.0477C0.130213 14.6354 0.00685334 15.6004 0 17.3524C0 18.2284 0.0342667 19.1728 0.0822401 19.5424C0.459174 22.3483 1.3364 24.7642 2.80987 27.0226L3.30331 27.7823L2.21363 30.992C1.61053 32.7646 1.1308 34.2154 1.14451 34.2291C1.15821 34.2428 2.65224 33.7774 4.47523 33.1957C6.29822 32.614 7.81281 32.1349 7.84707 32.1349C7.87449 32.1349 8.15547 32.2923 8.47073 32.4908C8.78598 32.6824 9.4439 33.0383 9.93049 33.271C14.3646 35.3857 19.4292 35.5705 23.9661 33.7706C29.1061 31.738 33.0537 27.2827 34.4654 21.9309C34.8972 20.2884 35 19.3918 35 17.4893C35 15.5867 34.8972 14.6902 34.4654 13.0477C32.8069 6.77191 27.7697 1.8923 21.4098 0.407205C20.3407 0.160829 19.2305 0.0307976 17.8804 0.0102663C17.1265 -0.00342126 16.3863 -0.00342126 16.2356 0.0102663ZM12.055 8.12698C12.1715 8.18857 12.3292 8.35282 12.4114 8.50339C12.6101 8.86611 14.2824 12.8697 14.3303 13.1161C14.392 13.4241 14.0836 13.951 13.4051 14.7175C12.6924 15.5183 12.5416 15.7715 12.6033 16.0589C12.7198 16.579 14.3029 18.6801 15.2829 19.604C16.7975 21.0343 19.0865 22.3962 20.1077 22.4715C20.6354 22.5057 20.8204 22.362 21.6291 21.2944C21.9924 20.8085 22.3761 20.3226 22.4927 20.2131C22.7531 19.9462 23.1437 19.8914 23.5892 20.0557C24.1512 20.2678 27.5984 21.9446 27.8451 22.1293L28.0781 22.3004L28.037 23.0259C27.9411 24.8874 27.2831 25.8524 25.5561 26.6941C23.9113 27.4949 22.6229 27.4743 20.1077 26.6052C16.7221 25.4349 14.9334 24.3193 12.5005 21.8761C11.2806 20.6579 10.4171 19.6245 9.43019 18.2079C7.7991 15.881 7.17545 14.0811 7.36049 12.2538C7.51126 10.7892 8.02526 9.70789 9.06011 8.67448C9.56041 8.17489 10.2115 7.96957 11.1984 8.00379C11.6164 8.01748 11.9248 8.05854 12.055 8.12698Z" fill="white"/>
<linearGradient id="paint0_linear_702_119" x1="14" y1="30.0013" x2="45.9952" y2="30.0013" gradientUnits="userSpaceOnUse">
<stop stop-color="#0091D7"/>
<stop offset="1" stop-color="#FE0FD4"/>
</linearGradient>
</svg>
